<?xml version="1.0" encoding="utf-8"?>
<!-- Generator: Adobe Illustrator 25.1.0, SVG Export Plug-In . SVG Version: 6.00 Build 0)  -->
<svg version="1.1" xmlns="http://www.w3.org/2000/svg" xmlns:xlink="http://www.w3.org/1999/xlink" x="0px" y="0px" width="100px"
	 height="100px" viewBox="0 0 100 100" style="enable-background:new 0 0 100 100;" xml:space="preserve">
<style type="text/css">
	.st0{display:none;}
	.st1{display:inline;}
	.st2{fill:#0D172E;}
	.st3{fill:#5478BC;}
	.st4{fill:#5894CF;}
	.st5{fill:#52B1E4;}
	.st6{display:inline;fill:#FFFFFF;}
	.st7{fill:#FFFFFF;}
	.st8{fill:#1D222E;}
	.st9{fill:#1E232F;}
	.st10{fill:#1B212D;}
</style>
<g id="Layer_2" class="st0">
	<rect class="st1" width="100" height="100"/>
	<rect x="0.0652" y="-0.014" class="st2" width="100" height="100"/>
</g>
<g id="Layer_1">
	<g>
		<path class="st3" d="M84.8967,64.581L63.9856,93.6738L49.9949,100l-13.9805-6.3262L15.1033,64.581l10.2821,5.0815v-0.0051
			l-5.961-30.5042v-0.0017l-0.0017-0.0017v-0.0051l0.0051,0.0051l0.0085,0.017l19.2355,40.5158
			c0,0.0068,0.0017,0.0136,0.0051,0.0204c1.2334,5.1087,5.8351,8.9041,11.3232,8.9041c5.4881,0,10.0898-3.7954,11.3232-8.9041
			l19.2542-40.5532l-0.0051,0.0068l0.0102-0.0221l-5.9678,30.5281L84.8967,64.581z"/>
		<path class="st4" d="M40.0429,70.9044c-1.0752,1.7641-1.6927,3.8362-1.6927,6.0529c0,0.9391,0.1106,1.8509,0.3215,2.7253
			c0,0.0068,0.0017,0.0136,0.0051,0.0204L19.4243,39.1531l0.0119,0.0136l13.1452,17.0477L50,0L40.0429,70.9044z"/>
		<path class="st5" d="M50,0l-3.2816,65.7463l-0.0187,0.0357c-2.7781,0.8166-5.1665,2.7117-6.6568,5.1223L50,0z"/>
		<path class="st4" d="M61.3283,79.6826c0.2109-0.8744,0.3215-1.7863,0.3215-2.7253c0-2.2167-0.6175-4.2887-1.6927-6.0529L50,0
			l17.4186,56.2145l13.1537-17.0579L61.3283,79.6826z"/>
		<path class="st5" d="M59.9571,70.9044c-1.4903-2.4106-3.8787-4.3057-6.6568-5.1223l-0.0187-0.0357L50,0L59.9571,70.9044z"/>
	</g>
	<g class="st0">
		<path class="st1" d="M84.8967,64.581L63.9856,93.6738L49.9949,100l-13.9805-6.3262L15.1033,64.581l10.2821,5.0815v-0.0051
			l-5.961-30.5042v-0.0017l-0.0017-0.0017v-0.0051l0.0051,0.0051l0.0085,0.017l19.2355,40.5158
			c0,0.0068,0.0017,0.0136,0.0051,0.0204c1.2334,5.1087,5.8351,8.9041,11.3232,8.9041c5.4881,0,10.0898-3.7954,11.3232-8.9041
			l19.2542-40.5532l-0.0051,0.0068l0.0102-0.0221l-5.9678,30.5281L84.8967,64.581z"/>
		<path class="st1" d="M40.0429,70.9044c-1.0752,1.7641-1.6927,3.8362-1.6927,6.0529c0,0.9391,0.1106,1.8509,0.3215,2.7253
			c0,0.0068,0.0017,0.0136,0.0051,0.0204L19.4243,39.1531l0.0119,0.0136l13.1452,17.0477L50,0L40.0429,70.9044z"/>
		<path class="st1" d="M50,0l-3.2816,65.7463l-0.0187,0.0357c-2.7781,0.8166-5.1665,2.7117-6.6568,5.1223L50,0z"/>
		<path class="st1" d="M61.3283,79.6826c0.2109-0.8744,0.3215-1.7863,0.3215-2.7253c0-2.2167-0.6175-4.2887-1.6927-6.0529L50,0
			l17.4186,56.2145l13.1537-17.0579L61.3283,79.6826z"/>
		<path class="st1" d="M59.9571,70.9044c-1.4903-2.4106-3.8787-4.3057-6.6568-5.1223l-0.0187-0.0357L50,0L59.9571,70.9044z"/>
	</g>
	<g class="st0">
		<path class="st6" d="M84.8967,64.581L63.9856,93.6738L49.9949,100l-13.9805-6.3262L15.1033,64.581l10.2821,5.0815v-0.0051
			l-5.961-30.5042v-0.0017l-0.0017-0.0017v-0.0051l0.0051,0.0051l0.0085,0.017l19.2355,40.5158
			c0,0.0068,0.0017,0.0136,0.0051,0.0204c1.2334,5.1087,5.8351,8.9041,11.3232,8.9041c5.4881,0,10.0898-3.7954,11.3232-8.9041
			l19.2542-40.5532l-0.0051,0.0068l0.0102-0.0221l-5.9678,30.5281L84.8967,64.581z"/>
		<path class="st6" d="M40.0429,70.9044c-1.0752,1.7641-1.6927,3.8362-1.6927,6.0529c0,0.9391,0.1106,1.8509,0.3215,2.7253
			c0,0.0068,0.0017,0.0136,0.0051,0.0204L19.4243,39.1531l0.0119,0.0136l13.1452,17.0477L50,0L40.0429,70.9044z"/>
		<path class="st6" d="M50,0l-3.2816,65.7463l-0.0187,0.0357c-2.7781,0.8166-5.1665,2.7117-6.6568,5.1223L50,0z"/>
		<path class="st6" d="M61.3283,79.6826c0.2109-0.8744,0.3215-1.7863,0.3215-2.7253c0-2.2167-0.6175-4.2887-1.6927-6.0529L50,0
			l17.4186,56.2145l13.1537-17.0579L61.3283,79.6826z"/>
		<path class="st6" d="M59.9571,70.9044c-1.4903-2.4106-3.8787-4.3057-6.6568-5.1223l-0.0187-0.0357L50,0L59.9571,70.9044z"/>
	</g>
</g>
<g id="Layer_3" class="st0">
	<g id="Black" class="st1">
		<g>
			<path d="M78.4715,52.824l-17.061,23.7362l-11.4147,5.1615l-11.4064-5.1615L21.5285,52.824l8.3889,4.1459v-0.0042l-4.8635-24.8878
				v-0.0014l-0.0014-0.0014v-0.0042l0.0042,0.0042l0.0069,0.0139l15.6938,33.056c0,0.0056,0.0014,0.0111,0.0042,0.0167
				c1.0063,4.1681,4.7608,7.2647,9.2384,7.2647c4.4776,0,8.2321-3.0966,9.2384-7.2647l15.7091-33.0866l-0.0042,0.0056l0.0083-0.018
				l-4.869,24.9072L78.4715,52.824z"/>
			<path d="M41.8762,57.9831c-0.8772,1.4393-1.381,3.1299-1.381,4.9384c0,0.7662,0.0902,1.5101,0.2623,2.2235
				c0,0.0056,0.0014,0.0111,0.0042,0.0167L25.0539,32.0779l0.0097,0.0111l10.7249,13.9089L50,0.1336L41.8762,57.9831z"/>
			<path d="M50,0.1336l-2.6774,53.6411l-0.0153,0.0292c-2.2666,0.6662-4.2153,2.2124-5.4311,4.1792L50,0.1336z"/>
			<path d="M59.2425,65.145c0.1721-0.7134,0.2623-1.4574,0.2623-2.2235c0-1.8085-0.5038-3.4991-1.381-4.9384L50,0.1336
				l14.2115,45.8643l10.7318-13.9172L59.2425,65.145z"/>
			<path d="M58.1238,57.9831c-1.2159-1.9668-3.1646-3.513-5.4311-4.1792l-0.0153-0.0292L50,0.1336L58.1238,57.9831z"/>
		</g>
		<g>
			<path d="M9.0458,93.2749c-0.0096,0.0795,0.0511,0.1125,0.0896,0.156c0.7054,0.7954,1.4119,1.5898,2.1183,2.3843
				c0.4342,0.4885,0.8684,0.977,1.303,1.4651c0.0522,0.0586,0.1123,0.1121,0.0966,0.2028c-0.0061,0.035-0.0116,0.0707-0.0565,0.0739
				c-0.052,0.0037-0.1043,0.0058-0.1565,0.0058c-0.7758,0.0003-1.5517-0.0042-2.3274,0.0041
				c-0.1479,0.0016-0.2399-0.0515-0.3319-0.1572c-1.0751-1.2361-2.1537-2.4692-3.2313-3.7031
				c-0.0344-0.0394-0.0698-0.078-0.1023-0.1188c-0.0353-0.0443-0.0793-0.0642-0.1358-0.0623
				c-0.0522,0.0018-0.1046,0.0001-0.1569,0.0001c-0.5579,0-1.1158-0.0001-1.6737,0.0001c-0.061,0-0.122,0.0008-0.183,0.0015
				c-0.0507,0.0006-0.0819,0.0249-0.0837,0.0768c-0.0026,0.0783-0.0028,0.1568-0.0029,0.2351
				c-0.0002,1.1328-0.0001,2.2655-0.0001,3.3983c0,0.0697,0.0015,0.1395-0.0008,0.2091c-0.0034,0.1015-0.0158,0.1126-0.1277,0.1159
				c-0.0697,0.0021-0.1395,0.0006-0.2092,0.0006c-0.5579,0-1.1158,0.0007-1.6737-0.0007c-0.0863-0.0002-0.1743,0.0141-0.2581-0.0171
				c-0.0364-0.0666-0.0211-0.1377-0.0212-0.2062C1.92,93.4527,1.9201,89.5664,1.9202,85.6801c0-0.0523-0.0016-0.1048,0.0023-0.1568
				c0.0037-0.0479,0.0288-0.0807,0.0816-0.0825c0.0435-0.0015,0.0871-0.003,0.1306-0.0028
				c1.2464,0.0059,2.4928,0.0123,3.7392,0.0182c0.6101,0.0029,1.2203,0.0077,1.8305,0.0066
				c0.6781-0.0012,1.3368,0.1039,1.9603,0.3749c1.2758,0.5546,2.0568,1.5141,2.3153,2.8845
				c0.1365,0.7236,0.0875,1.4426-0.1335,2.143c-0.333,1.0553-1.0341,1.7739-2.0585,2.1826
				C9.5463,93.1442,9.2938,93.2062,9.0458,93.2749z M6.1381,91.4506c0.4874,0,0.9749,0.0008,1.4623-0.0004
				c0.2437-0.0006,0.4872-0.0069,0.7252-0.0695c0.7074-0.1859,1.1689-0.6196,1.3557-1.335
				c0.0671-0.2568,0.0778-0.5169,0.0449-0.7768c-0.0889-0.7025-0.4486-1.2115-1.1052-1.4956
				c-0.2829-0.1224-0.5819-0.1681-0.8902-0.1681c-1.1141,0.0001-2.2283-0.0035-3.3424-0.0055
				c-0.0348-0.0001-0.0696,0.0012-0.1043,0.0037c-0.0415,0.0029-0.0601,0.0296-0.0617,0.0682
				c-0.0023,0.0521-0.0031,0.1043-0.0031,0.1565c-0.0002,1.1311-0.0002,2.2623,0,3.3934c0,0.0522,0.0007,0.1044,0.0031,0.1565
				c0.0017,0.0385,0.0198,0.0665,0.0617,0.0681c0.0695,0.0027,0.1391,0.0042,0.2087,0.0042
				C5.0413,91.4507,5.5897,91.4506,6.1381,91.4506z"/>
			<path d="M30.7012,90.0572c0.0023-0.0847,0.0065-0.1694,0.0066-0.2541c0.0004-1.3242,0.0003-2.6485,0.0003-3.9727
				c0-0.0523-0.0005-0.1046,0.0001-0.1568c0.0022-0.1983,0.0024-0.2002,0.2016-0.2005c0.5752-0.001,1.1504-0.0004,1.7257-0.0004
				c0.0261,0,0.0523-0.0005,0.0784,0.0004c0.1167,0.0041,0.1231,0.0091,0.1264,0.115c0.0022,0.0696,0.0008,0.1394,0.0008,0.2091
				c0,3.0318,0,6.0636,0,9.0954c0,0.7928,0,1.5856-0.0001,2.3784c0,0.0697-0.0008,0.1394-0.0018,0.209
				c-0.0007,0.0526-0.0308,0.0768-0.0805,0.0806c-0.0173,0.0014-0.0348,0.0019-0.0522,0.0019
				c-0.5752,0.0001-1.1504,0.0008-1.7257-0.0007c-0.1174-0.0003-0.1213-0.0036-0.1387-0.1362
				c-0.034-0.2589-0.0631-0.5184-0.0944-0.7777c-0.0052-0.0432-0.0057-0.088-0.0188-0.1287
				c-0.0063-0.0195-0.0392-0.0405-0.0631-0.0167c-0.0366,0.0364-0.0688,0.0775-0.1007,0.1183
				c-0.4185,0.5367-0.9714,0.8649-1.6249,1.0244c-0.5121,0.125-1.0319,0.1398-1.5569,0.0783
				c-0.4967-0.0582-0.9754-0.1737-1.4293-0.3834c-1.1487-0.5305-1.8672-1.4258-2.2029-2.6332
				c-0.1985-0.7139-0.2172-1.4428-0.1333-2.1765c0.0517-0.4525,0.1569-0.8912,0.3357-1.31
				c0.4782-1.1201,1.3149-1.8395,2.4745-2.1894c0.5121-0.1545,1.039-0.2316,1.5728-0.2047c0.7906,0.0399,1.518,0.2821,2.163,0.7502
				C30.3545,89.7148,30.5157,89.8843,30.7012,90.0572z M28.0844,95.7896c0.1827-0.0074,0.3636-0.021,0.5434-0.0637
				c1.3246-0.3151,2.1679-1.6618,1.8387-3.006c-0.3391-1.3843-1.6861-2.0617-2.7525-1.8751
				c-0.9454,0.1654-1.5833,0.679-1.8838,1.5915c-0.1613,0.4899-0.1685,0.9927-0.056,1.4955
				C26.0224,95.0408,26.9546,95.7891,28.0844,95.7896z"/>
			<path d="M96.2869,89.9894c0-0.2823-0.0002-0.5072,0.0001-0.7322c0.0001-0.0609-0.0001-0.1219,0.0035-0.1827
				c0.0023-0.0396,0.0301-0.0609,0.0677-0.0644c0.0433-0.004,0.087-0.005,0.1304-0.005c0.4706-0.0003,0.9412-0.001,1.4118,0.0003
				c0.1793,0.0005,0.1794,0.0026,0.1818,0.1921c0.0004,0.0348,0.0001,0.0697,0.0001,0.1045c0,2.0994,0.0001,4.1988,0,6.2983
				c0,0.471-0.0231,0.9399-0.1232,1.4023c-0.104,0.4804-0.271,0.9348-0.5469,1.3452c-0.4099,0.61-0.9842,0.9996-1.6708,1.2328
				c-0.4893,0.1662-0.996,0.2475-1.5114,0.2654c-0.4791,0.0166-0.9582,0.0127-1.435-0.0512
				c-0.7282-0.0977-1.4343-0.2713-2.0948-0.6035c-0.2026-0.1019-0.3972-0.2169-0.5789-0.3527
				c-0.1497-0.1119-0.1509-0.1138-0.0598-0.2679c0.2216-0.3744,0.4451-0.7477,0.6677-1.1216
				c0.0265-0.0444,0.047-0.0935,0.1047-0.1223c0.0252,0.0164,0.0548,0.0336,0.0821,0.0537
				c0.6012,0.4436,1.2813,0.6867,2.0136,0.8068c0.4338,0.0712,0.868,0.0711,1.3027,0.0384c0.2605-0.0196,0.5152-0.08,0.76-0.1754
				c0.5381-0.2095,0.8912-0.5932,1.0681-1.1399c0.1358-0.4195,0.1466-0.8509,0.1261-1.2775
				c-0.0526-0.0354-0.075-0.0025-0.0985,0.0192c-0.5579,0.5153-1.2239,0.7767-1.9722,0.8641
				c-0.7969,0.0931-1.5671-0.001-2.2976-0.327c-1.261-0.5628-1.9864-1.539-2.1839-2.9066c-0.0952-0.6591-0.0366-1.3053,0.191-1.9292
				c0.3879-1.0635,1.1374-1.7739,2.1909-2.1656c0.724-0.2692,1.4726-0.3276,2.237-0.2236c0.2688,0.0366,0.5303,0.0983,0.7836,0.1915
				c0.4132,0.1522,0.7834,0.376,1.097,0.6884C96.1701,89.88,96.2077,89.9143,96.2869,89.9894z M93.8771,94.94
				c0.1903,0.0098,0.3979-0.0121,0.6025-0.0588c0.4148-0.0946,0.7895-0.2698,1.098-0.5687
				c0.4961-0.4806,0.6937-1.0803,0.6455-1.7541c-0.0619-0.865-0.4931-1.4994-1.2993-1.8329
				c-0.723-0.2991-1.4629-0.2856-2.1836,0.0277c-0.5645,0.2454-0.9485,0.6692-1.1378,1.2569
				c-0.1052,0.3266-0.1319,0.6628-0.0871,1.0061c0.1043,0.7996,0.5209,1.3695,1.2508,1.7054
				C93.1102,94.8801,93.477,94.9498,93.8771,94.94z"/>
			<path d="M85.3485,89.942c0-0.2757-0.0013-0.5364,0.0006-0.7971c0.0009-0.1255,0.012-0.138,0.1307-0.1389
				c0.2963-0.0023,0.5926-0.001,0.8889-0.0011c0.2092,0,0.4183,0.0001,0.6275,0.0003c0.0435,0,0.0872-0.0005,0.1265,0.0296
				c0.0279,0.0825,0.0143,0.1703,0.0143,0.2566c0.0008,2.1343-0.0009,4.2687,0.0016,6.403c0.0007,0.5693-0.0547,1.1302-0.2175,1.677
				c-0.2749,0.9231-0.8239,1.6203-1.703,2.0395c-0.3313,0.158-0.6802,0.265-1.0406,0.3314
				c-0.7163,0.1319-1.4359,0.138-2.1597,0.0665c-0.6361-0.0629-1.253-0.1996-1.8478-0.4321
				c-0.3578-0.1399-0.6967-0.3166-1.0051-0.5479c-0.0413-0.031-0.08-0.0657-0.132-0.1086c0.2683-0.4713,0.5515-0.927,0.811-1.3699
				c0.0654-0.0308,0.091-0.002,0.1169,0.0179c0.4981,0.3855,1.0693,0.6098,1.6753,0.7546c0.5475,0.1309,1.1037,0.1505,1.662,0.1025
				c0.2602-0.0224,0.515-0.0821,0.7591-0.1789c0.5165-0.2048,0.8647-0.5686,1.0442-1.096c0.0764-0.2243,0.1232-0.4547,0.1389-0.6889
				c0.0145-0.2161,0.0031-0.4339,0.0031-0.6517c-0.0535-0.0264-0.0767,0.021-0.1055,0.0476
				c-0.544,0.5025-1.1937,0.7601-1.922,0.8542c-0.7321,0.0946-1.4481,0.0273-2.1321-0.2367
				c-1.344-0.5188-2.1526-1.4913-2.3817-2.924c-0.102-0.6377-0.0623-1.2697,0.1403-1.8837
				c0.3513-1.0647,1.0611-1.8062,2.0944-2.2257c0.9498-0.3856,1.9286-0.43,2.9179-0.1616c0.5133,0.1393,0.9633,0.3954,1.3435,0.7706
				C85.2333,89.8854,85.2592,89.9359,85.3485,89.942z M82.856,90.525c-0.1611,0.0077-0.3872,0.0144-0.6087,0.0705
				c-0.4127,0.1045-0.7823,0.2864-1.0867,0.5898c-0.3469,0.3457-0.5346,0.7673-0.5928,1.2489
				c-0.1077,0.891,0.2645,1.925,1.391,2.3425c0.5994,0.2221,1.2123,0.2292,1.8197,0.0379c0.5153-0.1623,0.9312-0.4688,1.2052-0.9434
				c0.2613-0.4525,0.3486-0.9408,0.2792-1.4591c-0.1105-0.825-0.5618-1.3861-1.3209-1.7063
				C83.6168,90.5686,83.2725,90.5215,82.856,90.525z"/>
			<path d="M45.3578,96.4538c-0.0568-0.0018-0.0728,0.0303-0.0909,0.0585c-0.2366,0.3684-0.5616,0.6394-0.9427,0.8456
				c-0.5526,0.2989-1.141,0.4599-1.7732,0.4636c-0.5981,0.0035-1.1815-0.0788-1.7411-0.2889
				c-1.2066-0.4531-1.9846-1.3128-2.3701-2.5352c-0.1851-0.5871-0.2466-1.1918-0.2382-1.8042
				c0.0074-0.5423,0.0757-1.0775,0.2516-1.5926c0.4738-1.3876,1.4408-2.2462,2.8478-2.6186
				c0.4906-0.1299,0.9939-0.1811,1.5014-0.1564c0.5729,0.0279,1.1155,0.1713,1.6154,0.4599
				c0.3049,0.176,0.5715,0.3963,0.7896,0.6745c0.0348,0.0444,0.0522,0.112,0.1233,0.12c0.0522-0.0363,0.0417-0.0921,0.0446-0.1404
				c0.0112-0.1825,0.0171-0.3654,0.0277-0.548c0.0056-0.0955,0.0158-0.1908,0.0262-0.286c0.0055-0.0509,0.0389-0.0731,0.0886-0.0732
				c0.061-0.0002,0.122-0.0009,0.183-0.0009c0.4967-0.0001,0.9934-0.0001,1.4901,0c0.061,0,0.122,0.0002,0.183,0.001
				c0.0661,0.0009,0.0904,0.0415,0.0922,0.1008c0.0016,0.0522,0.0012,0.1045,0.0012,0.1568c0,2.6742,0,5.3484,0,8.0226
				c0,0.0435,0.0012,0.0872-0.0005,0.1306c-0.0041,0.1043-0.0157,0.119-0.1242,0.1193c-0.5926,0.0014-1.1851,0.0013-1.7777-0.0003
				c-0.0917-0.0002-0.1057-0.0161-0.1131-0.1047c-0.0209-0.2516-0.0401-0.5034-0.0602-0.7551
				C45.3849,96.617,45.3879,96.53,45.3578,96.4538z M45.3177,93.2788c0.0041-0.2479-0.0456-0.606-0.1447-0.8906
				c-0.2723-0.7817-0.7807-1.3319-1.5909-1.5591c-0.5215-0.1462-1.0507-0.1397-1.5714,0.0211
				c-0.7599,0.2346-1.2753,0.7304-1.5343,1.4804c-0.2109,0.6108-0.2161,1.2335-0.0275,1.8496
				c0.2411,0.7876,0.7628,1.3158,1.5455,1.5721c0.4456,0.146,0.904,0.1668,1.3675,0.0791c0.5905-0.1117,1.0727-0.3971,1.4322-0.8797
				C45.1497,94.4742,45.3038,93.9291,45.3177,93.2788z"/>
			<path d="M20.204,97.5346c-0.0232-0.2653-0.0468-0.5334-0.0698-0.8016c-0.0067-0.0781-0.0105-0.1564-0.0185-0.2343
				c-0.0015-0.0142-0.0142-0.0328-0.0269-0.0391c-0.0264-0.013-0.0462,0.0029-0.0613,0.0256
				c-0.5076,0.7636-1.2623,1.1321-2.1316,1.2754c-1.0851,0.1788-2.1181-0.0096-3.0629-0.5815
				c-0.8434-0.5105-1.3676-1.2737-1.651-2.2075c-0.1345-0.4432-0.2068-0.898-0.2212-1.362
				c-0.0179-0.5769,0.0083-1.149,0.1598-1.7099c0.4191-1.5512,1.4174-2.5169,2.9654-2.9199
				c0.4484-0.1167,0.9083-0.1638,1.372-0.1528c0.5739,0.0137,1.1201,0.1447,1.6282,0.4166c0.3417,0.1829,0.6401,0.42,0.8774,0.7294
				c0.0264,0.0345,0.0512,0.0704,0.0804,0.1024c0.0084,0.0092,0.0324,0.0132,0.0443,0.008c0.0131-0.0057,0.028-0.0241,0.029-0.0378
				c0.0069-0.0955,0.0097-0.1913,0.0152-0.287c0.0118-0.2087,0.0224-0.4175,0.0377-0.626c0.0065-0.0893,0.0205-0.1005,0.1149-0.1007
				c0.6014-0.0011,1.2028-0.0013,1.8042,0.0002c0.1069,0.0003,0.1183,0.0153,0.1224,0.1227
				c0.002,0.0522,0.0007,0.1045,0.0007,0.1568c0,2.6573,0.0001,5.3145-0.0003,7.9718c0,0.0854-0.0044,0.1707-0.0066,0.253
				C21.9713,97.5738,20.4117,97.572,20.204,97.5346z M17.5977,95.8786c0.166,0.0022,0.3294-0.0142,0.4935-0.0439
				c0.7225-0.131,1.2772-0.5081,1.6232-1.1524c0.478-0.8902,0.4826-1.8036,0.0296-2.7053c-0.3009-0.599-0.7944-0.9874-1.442-1.1592
				c-0.4791-0.1271-0.9699-0.1292-1.448,0.002c-0.8234,0.2259-1.3836,0.7444-1.6458,1.5648
				c-0.1999,0.6254-0.1947,1.2559,0.0156,1.8748c0.2443,0.7188,0.7312,1.2129,1.4518,1.4682
				C16.9736,95.8332,17.2807,95.887,17.5977,95.8786z"/>
			<path d="M51.2143,90.1472c0.0892-0.0765,0.1408-0.122,0.1939-0.166c0.1409-0.1166,0.2778-0.2385,0.4244-0.3475
				c0.7806-0.5804,1.6486-0.8384,2.6242-0.7187c0.9659,0.1185,1.7473,0.5527,2.3377,1.3267
				c0.2558,0.3353,0.4404,0.7085,0.5744,1.1071c0.1621,0.4821,0.2397,0.9795,0.2596,1.4863
				c0.0068,0.174,0.0032,0.3484,0.0032,0.5226c0.0002,1.298,0.0002,2.596,0,3.8939c0,0.0784-0.0006,0.1568-0.0032,0.2351
				c-0.0013,0.0402-0.0269,0.0616-0.0657,0.065c-0.0346,0.003-0.0695,0.0041-0.1043,0.0043
				c-0.5926,0.0025-1.1851,0.0049-1.7777,0.0067c-0.0434,0.0001-0.0875-0.0011-0.1298-0.0093
				c-0.0232-0.0045-0.0466-0.0216-0.047-0.0535c-0.0008-0.0783-0.0035-0.1566-0.0035-0.2349
				c-0.0002-1.3764-0.0016-2.7528,0.0009-4.1291c0.0006-0.3158-0.0272-0.6269-0.1246-0.9276
				c-0.2027-0.6262-0.5905-1.0906-1.2345-1.2796c-1.0266-0.3013-2.0401,0.0618-2.5678,1.0647
				c-0.1722,0.3273-0.267,0.6791-0.2779,1.0509c-0.0028,0.0958-0.0029,0.1916-0.0029,0.2874
				c-0.0002,1.3067-0.0001,2.6134-0.0001,3.9201c0,0.0949,0,0.1897,0,0.2729c-0.0622,0.0444-0.1156,0.0384-0.1674,0.0384
				c-0.5926,0.0003-1.1852,0.0002-1.7778,0.0002c-0.0261,0-0.0523-0.0001-0.0784-0.0012c-0.0589-0.0023-0.0993-0.0239-0.0978-0.0917
				c0.001-0.0435-0.0007-0.0871-0.0007-0.1307c0-2.7005,0-5.401,0-8.1015c0-0.0435,0.001-0.0871,0.0017-0.1306
				c0.0008-0.051,0.0278-0.0808,0.0774-0.0855c0.0432-0.0041,0.087-0.0031,0.1305-0.0032c0.4967-0.0002,0.9935-0.0001,1.4902-0.0001
				c0.0349,0,0.0698-0.0011,0.1046,0.0008c0.0903,0.0049,0.1063,0.0182,0.1166,0.1032c0.0357,0.2938,0.0704,0.5877,0.1054,0.8816
				C51.2017,90.0367,51.2053,90.069,51.2143,90.1472z"/>
			<path d="M66.5489,94.8442c0.5892,0.5633,1.3126,0.8632,2.0901,1.0569c0.2631,0.0655,0.5306,0.1035,0.7999,0.1149
				c0.3347,0.0142,0.6587-0.0478,0.9626-0.1945c0.1503-0.0725,0.2841-0.169,0.3956-0.2946
				c0.1131-0.1274,0.1854-0.2749,0.2012-0.4445c0.0263-0.2818-0.0616-0.5143-0.3099-0.6713
				c-0.1797-0.1137-0.3801-0.1697-0.586-0.2088c-0.3086-0.0586-0.6216-0.0782-0.9339-0.105
				c-0.6184-0.0531-1.2219-0.1735-1.7971-0.4154c-0.2907-0.1223-0.5623-0.2767-0.8034-0.4808
				c-0.4922-0.4168-0.7494-0.95-0.7782-1.5932c-0.0126-0.2797,0.0059-0.5564,0.0842-0.8277
				c0.1402-0.486,0.4198-0.8747,0.8164-1.1831c0.4414-0.3433,0.9482-0.5445,1.4871-0.6692
				c0.5294-0.1225,1.0664-0.1542,1.6093-0.1259c0.4627,0.0241,0.9175,0.0817,1.3619,0.2185
				c0.5668,0.1745,1.0642,0.4688,1.5126,0.8516c0.0123,0.0106,0.0183,0.0285,0.0278,0.044c0.0058,0.0601-0.0439,0.0903-0.0755,0.128
				c-0.3191,0.3805-0.6399,0.7596-0.9602,1.139c-0.0225,0.0266-0.0421,0.0565-0.0682,0.0789
				c-0.0274,0.0235-0.0622,0.0311-0.0944,0.0056c-0.0341-0.0271-0.0662-0.0566-0.0998-0.0843
				c-0.4137-0.343-0.8905-0.53-1.4224-0.5979c-0.3751-0.0479-0.7468-0.0482-1.1196,0.0091
				c-0.2256,0.0347-0.443,0.0956-0.6358,0.2212c-0.2292,0.1493-0.3489,0.3591-0.3282,0.6388
				c0.0143,0.1929,0.1014,0.3486,0.2458,0.4737c0.1339,0.116,0.2916,0.1876,0.459,0.2402c0.3095,0.0972,0.6283,0.1344,0.9507,0.1548
				c0.6093,0.0386,1.2122,0.1164,1.7952,0.3097c0.2823,0.0936,0.5509,0.2158,0.7964,0.3837
				c0.4484,0.3067,0.751,0.7187,0.8891,1.2477c0.128,0.4899,0.1408,0.9811,0.01,1.4714c-0.1745,0.654-0.5699,1.1454-1.1335,1.5085
				c-0.4078,0.2627-0.8561,0.4221-1.3299,0.5138c-0.6468,0.1252-1.297,0.1273-1.9514,0.0668
				c-0.5861-0.0542-1.1495-0.1857-1.6834-0.4341c-0.5271-0.2453-0.9856-0.5874-1.3905-1.0027
				c-0.0117-0.012-0.0171-0.03-0.0253-0.0451C65.6096,96.1443,66.3896,95.0097,66.5489,94.8442z"/>
			<path d="M59.933,92.9709c0-0.6009,0.0001-1.2017-0.0001-1.8026c0-0.0696-0.0003-0.1393-0.0025-0.2089
				c-0.0016-0.0514-0.0327-0.0786-0.0817-0.0808c-0.0696-0.0032-0.1393-0.0025-0.209-0.0026
				c-0.392-0.0003-0.784,0.0007-1.1761-0.0011c-0.1109-0.0005-0.1231-0.012-0.1235-0.1202
				c-0.0017-0.5225-0.0019-1.045-0.0001-1.5675c0.0004-0.126,0.0181-0.1405,0.1597-0.1411c0.4007-0.0017,0.8015-0.001,1.2022-0.0005
				c0.2457,0.0003,0.2312,0.007,0.2311-0.2226c-0.0002-0.566-0.0002-1.1321,0.0001-1.6981c0-0.0696,0.0005-0.1393,0.0039-0.2087
				c0.0025-0.051,0.0346-0.0749,0.0841-0.08c0.1212-0.0126,0.2421-0.0274,0.3634-0.0394c0.4157-0.0413,0.8316-0.0812,1.2473-0.1228
				c0.1126-0.0112,0.2246-0.0278,0.3372-0.0388c0.05-0.0049,0.0835,0.0214,0.0864,0.0731c0.004,0.0694,0.0045,0.1391,0.0046,0.2087
				c0.0003,0.6096,0.0001,1.2191,0.0002,1.8287c0,0.0696,0.0012,0.1393,0.0015,0.209c0.0003,0.0665,0.0385,0.0902,0.0993,0.0901
				c0.0784-0.0001,0.1568,0.0007,0.2352,0.0007c0.575,0.0001,1.1499-0.0001,1.7249,0.0002c0.0696,0,0.1393,0.0005,0.2087,0.0046
				c0.0376,0.0022,0.0641,0.0263,0.0702,0.0642c0.0055,0.0341,0.0072,0.0692,0.0072,0.1038
				c0.0004,0.5051,0.0012,1.0102-0.0003,1.5152c-0.0004,0.1319-0.0083,0.1378-0.1288,0.1418
				c-0.0609,0.002-0.1219,0.0006-0.1829,0.0006c-0.5924,0-1.1848-0.0001-1.7772,0.0002c-0.0696,0-0.1394-0.0004-0.2087,0.0052
				c-0.0368,0.003-0.0645,0.0308-0.0686,0.0677c-0.0057,0.0517-0.0043,0.1043-0.0043,0.1565
				c-0.0002,1.1408,0.0002,2.2815-0.0006,3.4223c-0.0001,0.1138,0.0147,0.2251,0.0317,0.3373
				c0.0857,0.5642,0.4978,0.9259,1.1541,0.8829c0.2971-0.0195,0.5833-0.0905,0.8544-0.2179c0.0639-0.03,0.0937-0.0159,0.1167,0.0528
				c0.0882,0.2637,0.1739,0.5282,0.2602,0.7925c0.0864,0.2644,0.1733,0.5286,0.2584,0.7934
				c0.0415,0.1292,0.0405,0.1311-0.0698,0.1755c-0.2993,0.1206-0.609,0.2034-0.927,0.2588
				c-0.4147,0.0723-0.8327,0.083-1.2498,0.0498c-1.1217-0.0894-2.0019-0.6795-2.3626-1.8519
				c-0.1078-0.3506-0.1653-0.7119-0.1665-1.0798c-0.0019-0.5834-0.0005-1.1669-0.0005-1.7503
				C59.9345,92.9709,59.9338,92.9709,59.933,92.9709z"/>
			<path d="M34.6629,93.2905c0-1.3229,0-2.6459,0-3.9688c0-0.0696-0.0017-0.1393,0.001-0.2089
				c0.0038-0.0985,0.0218-0.118,0.1271-0.1183c0.6182-0.0014,1.2364-0.0014,1.8546,0c0.1151,0.0003,0.1304,0.0195,0.1345,0.139
				c0.0021,0.0609,0.0006,0.1218,0.0006,0.1828c0,2.6459,0.0006,5.2917-0.0007,7.9376c-0.0002,0.3545,0.0482,0.3062-0.2982,0.3079
				c-0.5137,0.0026-1.0274,0.0008-1.5411,0.0005c-0.0696,0-0.1392-0.0013-0.2088-0.0038c-0.0399-0.0014-0.0641-0.0246-0.0654-0.0644
				c-0.0026-0.0782-0.0034-0.1566-0.0034-0.2349C34.6629,95.9363,34.6629,94.6134,34.6629,93.2905z"/>
			<path d="M75.7448,94.5196c0.7059,0.0037,1.2237,0.5371,1.2184,1.2571c-0.0051,0.6931-0.5392,1.2272-1.2288,1.227
				c-0.7371-0.0002-1.2399-0.5931-1.2303-1.2506C74.516,94.9261,75.1618,94.4988,75.7448,94.5196z"/>
			<path d="M34.6963,87.5573c-0.0392-0.2587-0.0373-3.3518-0.0026-3.557c0.0416-0.016,0.0643,0.0164,0.0886,0.0378
				c0.6323,0.558,1.264,1.1166,1.8957,1.6751c0.013,0.0115,0.0269,0.0223,0.0388,0.0348c0.0368,0.0388,0.0327,0.0765-0.0068,0.1103
				c-0.2575,0.2205-0.515,0.441-0.773,0.6609c-0.3639,0.3101-0.7281,0.62-1.0928,0.9291
				C34.8049,87.4818,34.7611,87.5099,34.6963,87.5573z"/>
		</g>
	</g>
	<g id="White">
		<g class="st1">
			<path class="st7" d="M78.4715,52.824l-17.061,23.7362l-11.4147,5.1615l-11.4064-5.1615L21.5285,52.824l8.3889,4.1459v-0.0042
				l-4.8635-24.8878v-0.0014l-0.0014-0.0014v-0.0042l0.0042,0.0042l0.0069,0.0139l15.6938,33.056
				c0,0.0056,0.0014,0.0111,0.0042,0.0167c1.0063,4.1681,4.7608,7.2647,9.2384,7.2647c4.4776,0,8.2321-3.0966,9.2384-7.2647
				l15.7091-33.0866l-0.0042,0.0056l0.0083-0.018l-4.869,24.9072L78.4715,52.824z"/>
			<path class="st7" d="M41.8762,57.9831c-0.8772,1.4393-1.381,3.1299-1.381,4.9384c0,0.7662,0.0902,1.5101,0.2623,2.2235
				c0,0.0056,0.0014,0.0111,0.0042,0.0167L25.0539,32.0779l0.0097,0.0111l10.7249,13.9089L50,0.1336L41.8762,57.9831z"/>
			<path class="st7" d="M50,0.1336l-2.6774,53.6411l-0.0153,0.0292c-2.2666,0.6662-4.2153,2.2124-5.4311,4.1792L50,0.1336z"/>
			<path class="st7" d="M59.2425,65.145c0.1721-0.7134,0.2623-1.4574,0.2623-2.2235c0-1.8085-0.5038-3.4991-1.381-4.9384L50,0.1336
				l14.2115,45.8643l10.7318-13.9172L59.2425,65.145z"/>
			<path class="st7" d="M58.1238,57.9831c-1.2159-1.9668-3.1646-3.513-5.4311-4.1792l-0.0153-0.0292L50,0.1336L58.1238,57.9831z"/>
		</g>
		<g class="st1">
			<path class="st7" d="M9.0458,93.2749c-0.0096,0.0795,0.0511,0.1125,0.0896,0.156c0.7054,0.7954,1.4119,1.5898,2.1183,2.3843
				c0.4342,0.4885,0.8684,0.977,1.303,1.4651c0.0522,0.0586,0.1123,0.1121,0.0966,0.2028c-0.0061,0.035-0.0116,0.0707-0.0565,0.0739
				c-0.052,0.0037-0.1043,0.0058-0.1565,0.0058c-0.7758,0.0003-1.5517-0.0042-2.3274,0.0041
				c-0.1479,0.0016-0.2399-0.0515-0.3319-0.1572c-1.0751-1.2361-2.1537-2.4692-3.2313-3.7031
				c-0.0344-0.0394-0.0698-0.078-0.1023-0.1188c-0.0353-0.0443-0.0793-0.0642-0.1358-0.0623
				c-0.0522,0.0018-0.1046,0.0001-0.1569,0.0001c-0.5579,0-1.1158-0.0001-1.6737,0.0001c-0.061,0-0.122,0.0008-0.183,0.0015
				c-0.0507,0.0006-0.0819,0.0249-0.0837,0.0768c-0.0026,0.0783-0.0028,0.1568-0.0029,0.2351
				c-0.0002,1.1328-0.0001,2.2655-0.0001,3.3983c0,0.0697,0.0015,0.1395-0.0008,0.2091c-0.0034,0.1015-0.0158,0.1126-0.1277,0.1159
				c-0.0697,0.0021-0.1395,0.0006-0.2092,0.0006c-0.5579,0-1.1158,0.0007-1.6737-0.0007c-0.0863-0.0002-0.1743,0.0141-0.2581-0.0171
				c-0.0364-0.0666-0.0211-0.1377-0.0212-0.2062C1.92,93.4527,1.9201,89.5664,1.9202,85.6801c0-0.0523-0.0016-0.1048,0.0023-0.1568
				c0.0037-0.0479,0.0288-0.0807,0.0816-0.0825c0.0435-0.0015,0.0871-0.003,0.1306-0.0028
				c1.2464,0.0059,2.4928,0.0123,3.7392,0.0182c0.6101,0.0029,1.2203,0.0077,1.8305,0.0066
				c0.6781-0.0012,1.3368,0.1039,1.9603,0.3749c1.2758,0.5546,2.0568,1.5141,2.3153,2.8845
				c0.1365,0.7236,0.0875,1.4426-0.1335,2.143c-0.333,1.0553-1.0341,1.7739-2.0585,2.1826
				C9.5463,93.1442,9.2938,93.2062,9.0458,93.2749z M6.1381,91.4506c0.4874,0,0.9749,0.0008,1.4623-0.0004
				c0.2437-0.0006,0.4872-0.0069,0.7252-0.0695c0.7074-0.1859,1.1689-0.6196,1.3557-1.335
				c0.0671-0.2568,0.0778-0.5169,0.0449-0.7768c-0.0889-0.7025-0.4486-1.2115-1.1052-1.4956
				c-0.2829-0.1224-0.5819-0.1681-0.8902-0.1681c-1.1141,0.0001-2.2283-0.0035-3.3424-0.0055
				c-0.0348-0.0001-0.0696,0.0012-0.1043,0.0037c-0.0415,0.0029-0.0601,0.0296-0.0617,0.0682
				c-0.0023,0.0521-0.0031,0.1043-0.0031,0.1565c-0.0002,1.1311-0.0002,2.2623,0,3.3934c0,0.0522,0.0007,0.1044,0.0031,0.1565
				c0.0017,0.0385,0.0198,0.0665,0.0617,0.0681c0.0695,0.0027,0.1391,0.0042,0.2087,0.0042
				C5.0413,91.4507,5.5897,91.4506,6.1381,91.4506z"/>
			<path class="st7" d="M30.7012,90.0572c0.0023-0.0847,0.0065-0.1694,0.0066-0.2541c0.0004-1.3242,0.0003-2.6485,0.0003-3.9727
				c0-0.0523-0.0005-0.1046,0.0001-0.1568c0.0022-0.1983,0.0024-0.2002,0.2016-0.2005c0.5752-0.001,1.1504-0.0004,1.7257-0.0004
				c0.0261,0,0.0523-0.0005,0.0784,0.0004c0.1167,0.0041,0.1231,0.0091,0.1264,0.115c0.0022,0.0696,0.0008,0.1394,0.0008,0.2091
				c0,3.0318,0,6.0636,0,9.0954c0,0.7928,0,1.5856-0.0001,2.3784c0,0.0697-0.0008,0.1394-0.0018,0.209
				c-0.0007,0.0526-0.0308,0.0768-0.0805,0.0806c-0.0173,0.0014-0.0348,0.0019-0.0522,0.0019
				c-0.5752,0.0001-1.1504,0.0008-1.7257-0.0007c-0.1174-0.0003-0.1213-0.0036-0.1387-0.1362
				c-0.034-0.2589-0.0631-0.5184-0.0944-0.7777c-0.0052-0.0432-0.0057-0.088-0.0188-0.1287
				c-0.0063-0.0195-0.0392-0.0405-0.0631-0.0167c-0.0366,0.0364-0.0688,0.0775-0.1007,0.1183
				c-0.4185,0.5367-0.9714,0.8649-1.6249,1.0244c-0.5121,0.125-1.0319,0.1398-1.5569,0.0783
				c-0.4967-0.0582-0.9754-0.1737-1.4293-0.3834c-1.1487-0.5305-1.8672-1.4258-2.2029-2.6332
				c-0.1985-0.7139-0.2172-1.4428-0.1333-2.1765c0.0517-0.4525,0.1569-0.8912,0.3357-1.31
				c0.4782-1.1201,1.3149-1.8395,2.4745-2.1894c0.5121-0.1545,1.039-0.2316,1.5728-0.2047c0.7906,0.0399,1.518,0.2821,2.163,0.7502
				C30.3545,89.7148,30.5157,89.8843,30.7012,90.0572z M28.0844,95.7896c0.1827-0.0074,0.3636-0.021,0.5434-0.0637
				c1.3246-0.3151,2.1679-1.6618,1.8387-3.006c-0.3391-1.3843-1.6861-2.0617-2.7525-1.8751
				c-0.9454,0.1654-1.5833,0.679-1.8838,1.5915c-0.1613,0.4899-0.1685,0.9927-0.056,1.4955
				C26.0224,95.0408,26.9546,95.7891,28.0844,95.7896z"/>
			<path class="st7" d="M96.2869,89.9894c0-0.2823-0.0002-0.5072,0.0001-0.7322c0.0001-0.0609-0.0001-0.1219,0.0035-0.1827
				c0.0023-0.0396,0.0301-0.0609,0.0677-0.0644c0.0433-0.004,0.087-0.005,0.1304-0.005c0.4706-0.0003,0.9412-0.001,1.4118,0.0003
				c0.1793,0.0005,0.1794,0.0026,0.1818,0.1921c0.0004,0.0348,0.0001,0.0697,0.0001,0.1045c0,2.0994,0.0001,4.1988,0,6.2983
				c0,0.471-0.0231,0.9399-0.1232,1.4023c-0.104,0.4804-0.271,0.9348-0.5469,1.3452c-0.4099,0.61-0.9842,0.9996-1.6708,1.2328
				c-0.4893,0.1662-0.996,0.2475-1.5114,0.2654c-0.4791,0.0166-0.9582,0.0127-1.435-0.0512
				c-0.7282-0.0977-1.4343-0.2713-2.0948-0.6035c-0.2026-0.1019-0.3972-0.2169-0.5789-0.3527
				c-0.1497-0.1119-0.1509-0.1138-0.0598-0.2679c0.2216-0.3744,0.4451-0.7477,0.6677-1.1216
				c0.0265-0.0444,0.047-0.0935,0.1047-0.1223c0.0252,0.0164,0.0548,0.0336,0.0821,0.0537
				c0.6012,0.4436,1.2813,0.6867,2.0136,0.8068c0.4338,0.0712,0.868,0.0711,1.3027,0.0384c0.2605-0.0196,0.5152-0.08,0.76-0.1754
				c0.5381-0.2095,0.8912-0.5932,1.0681-1.1399c0.1358-0.4195,0.1466-0.8509,0.1261-1.2775
				c-0.0526-0.0354-0.075-0.0025-0.0985,0.0192c-0.5579,0.5153-1.2239,0.7767-1.9722,0.8641
				c-0.7969,0.0931-1.5671-0.001-2.2976-0.327c-1.261-0.5628-1.9864-1.539-2.1839-2.9066c-0.0952-0.6591-0.0366-1.3053,0.191-1.9292
				c0.3879-1.0635,1.1374-1.7739,2.1909-2.1656c0.724-0.2692,1.4726-0.3276,2.237-0.2236c0.2688,0.0366,0.5303,0.0983,0.7836,0.1915
				c0.4132,0.1522,0.7834,0.376,1.097,0.6884C96.1701,89.88,96.2077,89.9143,96.2869,89.9894z M93.8771,94.94
				c0.1903,0.0098,0.3979-0.0121,0.6025-0.0588c0.4148-0.0946,0.7895-0.2698,1.098-0.5687
				c0.4961-0.4806,0.6937-1.0803,0.6455-1.7541c-0.0619-0.865-0.4931-1.4994-1.2993-1.8329
				c-0.723-0.2991-1.4629-0.2856-2.1836,0.0277c-0.5645,0.2454-0.9485,0.6692-1.1378,1.2569
				c-0.1052,0.3266-0.1319,0.6628-0.0871,1.0061c0.1043,0.7996,0.5209,1.3695,1.2508,1.7054
				C93.1102,94.8801,93.477,94.9498,93.8771,94.94z"/>
			<path class="st7" d="M85.3485,89.942c0-0.2757-0.0013-0.5364,0.0006-0.7971c0.0009-0.1255,0.012-0.138,0.1307-0.1389
				c0.2963-0.0023,0.5926-0.001,0.8889-0.0011c0.2092,0,0.4183,0.0001,0.6275,0.0003c0.0435,0,0.0872-0.0005,0.1265,0.0296
				c0.0279,0.0825,0.0143,0.1703,0.0143,0.2566c0.0008,2.1343-0.0009,4.2687,0.0016,6.403c0.0007,0.5693-0.0547,1.1302-0.2175,1.677
				c-0.2749,0.9231-0.8239,1.6203-1.703,2.0395c-0.3313,0.158-0.6802,0.265-1.0406,0.3314
				c-0.7163,0.1319-1.4359,0.138-2.1597,0.0665c-0.6361-0.0629-1.253-0.1996-1.8478-0.4321
				c-0.3578-0.1399-0.6967-0.3166-1.0051-0.5479c-0.0413-0.031-0.08-0.0657-0.132-0.1086c0.2683-0.4713,0.5515-0.927,0.811-1.3699
				c0.0654-0.0308,0.091-0.002,0.1169,0.0179c0.4981,0.3855,1.0693,0.6098,1.6753,0.7546c0.5475,0.1309,1.1037,0.1505,1.662,0.1025
				c0.2602-0.0224,0.515-0.0821,0.7591-0.1789c0.5165-0.2048,0.8647-0.5686,1.0442-1.096c0.0764-0.2243,0.1232-0.4547,0.1389-0.6889
				c0.0145-0.2161,0.0031-0.4339,0.0031-0.6517c-0.0535-0.0264-0.0767,0.021-0.1055,0.0476
				c-0.544,0.5025-1.1937,0.7601-1.922,0.8542c-0.7321,0.0946-1.4481,0.0273-2.1321-0.2367
				c-1.344-0.5188-2.1526-1.4913-2.3817-2.924c-0.102-0.6377-0.0623-1.2697,0.1403-1.8837
				c0.3513-1.0647,1.0611-1.8062,2.0944-2.2257c0.9498-0.3856,1.9286-0.43,2.9179-0.1616c0.5133,0.1393,0.9633,0.3954,1.3435,0.7706
				C85.2333,89.8854,85.2592,89.9359,85.3485,89.942z M82.856,90.525c-0.1611,0.0077-0.3872,0.0144-0.6087,0.0705
				c-0.4127,0.1045-0.7823,0.2864-1.0867,0.5898c-0.3469,0.3457-0.5346,0.7673-0.5928,1.2489
				c-0.1077,0.891,0.2645,1.925,1.391,2.3425c0.5994,0.2221,1.2123,0.2292,1.8197,0.0379c0.5153-0.1623,0.9312-0.4688,1.2052-0.9434
				c0.2613-0.4525,0.3486-0.9408,0.2792-1.4591c-0.1105-0.825-0.5618-1.3861-1.3209-1.7063
				C83.6168,90.5686,83.2725,90.5215,82.856,90.525z"/>
			<path class="st7" d="M45.3578,96.4538c-0.0568-0.0018-0.0728,0.0303-0.0909,0.0585c-0.2366,0.3684-0.5616,0.6394-0.9427,0.8456
				c-0.5526,0.2989-1.141,0.4599-1.7732,0.4636c-0.5981,0.0035-1.1815-0.0788-1.7411-0.2889
				c-1.2066-0.4531-1.9846-1.3128-2.3701-2.5352c-0.1851-0.5871-0.2466-1.1918-0.2382-1.8042
				c0.0074-0.5423,0.0757-1.0775,0.2516-1.5926c0.4738-1.3876,1.4408-2.2462,2.8478-2.6186
				c0.4906-0.1299,0.9939-0.1811,1.5014-0.1564c0.5729,0.0279,1.1155,0.1713,1.6154,0.4599
				c0.3049,0.176,0.5715,0.3963,0.7896,0.6745c0.0348,0.0444,0.0522,0.112,0.1233,0.12c0.0522-0.0363,0.0417-0.0921,0.0446-0.1404
				c0.0112-0.1825,0.0171-0.3654,0.0277-0.548c0.0056-0.0955,0.0158-0.1908,0.0262-0.286c0.0055-0.0509,0.0389-0.0731,0.0886-0.0732
				c0.061-0.0002,0.122-0.0009,0.183-0.0009c0.4967-0.0001,0.9934-0.0001,1.4901,0c0.061,0,0.122,0.0002,0.183,0.001
				c0.0661,0.0009,0.0904,0.0415,0.0922,0.1008c0.0016,0.0522,0.0012,0.1045,0.0012,0.1568c0,2.6742,0,5.3484,0,8.0226
				c0,0.0435,0.0012,0.0872-0.0005,0.1306c-0.0041,0.1043-0.0157,0.119-0.1242,0.1193c-0.5926,0.0014-1.1851,0.0013-1.7777-0.0003
				c-0.0917-0.0002-0.1057-0.0161-0.1131-0.1047c-0.0209-0.2516-0.0401-0.5034-0.0602-0.7551
				C45.3849,96.617,45.3879,96.53,45.3578,96.4538z M45.3177,93.2788c0.0041-0.2479-0.0456-0.606-0.1447-0.8906
				c-0.2723-0.7817-0.7807-1.3319-1.5909-1.5591c-0.5215-0.1462-1.0507-0.1397-1.5714,0.0211
				c-0.7599,0.2346-1.2753,0.7304-1.5343,1.4804c-0.2109,0.6108-0.2161,1.2335-0.0275,1.8496
				c0.2411,0.7876,0.7628,1.3158,1.5455,1.5721c0.4456,0.146,0.904,0.1668,1.3675,0.0791c0.5905-0.1117,1.0727-0.3971,1.4322-0.8797
				C45.1497,94.4742,45.3038,93.9291,45.3177,93.2788z"/>
			<path class="st7" d="M20.204,97.5346c-0.0232-0.2653-0.0468-0.5334-0.0698-0.8016c-0.0067-0.0781-0.0105-0.1564-0.0185-0.2343
				c-0.0015-0.0142-0.0142-0.0328-0.0269-0.0391c-0.0264-0.013-0.0462,0.0029-0.0613,0.0256
				c-0.5076,0.7636-1.2623,1.1321-2.1316,1.2754c-1.0851,0.1788-2.1181-0.0096-3.0629-0.5815
				c-0.8434-0.5105-1.3676-1.2737-1.651-2.2075c-0.1345-0.4432-0.2068-0.898-0.2212-1.362
				c-0.0179-0.5769,0.0083-1.149,0.1598-1.7099c0.4191-1.5512,1.4174-2.5169,2.9654-2.9199
				c0.4484-0.1167,0.9083-0.1638,1.372-0.1528c0.5739,0.0137,1.1201,0.1447,1.6282,0.4166c0.3417,0.1829,0.6401,0.42,0.8774,0.7294
				c0.0264,0.0345,0.0512,0.0704,0.0804,0.1024c0.0084,0.0092,0.0324,0.0132,0.0443,0.008c0.0131-0.0057,0.028-0.0241,0.029-0.0378
				c0.0069-0.0955,0.0097-0.1913,0.0152-0.287c0.0118-0.2087,0.0224-0.4175,0.0377-0.626c0.0065-0.0893,0.0205-0.1005,0.1149-0.1007
				c0.6014-0.0011,1.2028-0.0013,1.8042,0.0002c0.1069,0.0003,0.1183,0.0153,0.1224,0.1227
				c0.002,0.0522,0.0007,0.1045,0.0007,0.1568c0,2.6573,0.0001,5.3145-0.0003,7.9718c0,0.0854-0.0044,0.1707-0.0066,0.253
				C21.9713,97.5738,20.4117,97.572,20.204,97.5346z M17.5977,95.8786c0.166,0.0022,0.3294-0.0142,0.4935-0.0439
				c0.7225-0.131,1.2772-0.5081,1.6232-1.1524c0.478-0.8902,0.4826-1.8036,0.0296-2.7053c-0.3009-0.599-0.7944-0.9874-1.442-1.1592
				c-0.4791-0.1271-0.9699-0.1292-1.448,0.002c-0.8234,0.2259-1.3836,0.7444-1.6458,1.5648
				c-0.1999,0.6254-0.1947,1.2559,0.0156,1.8748c0.2443,0.7188,0.7312,1.2129,1.4518,1.4682
				C16.9736,95.8332,17.2807,95.887,17.5977,95.8786z"/>
			<path class="st7" d="M51.2143,90.1472c0.0892-0.0765,0.1408-0.122,0.1939-0.166c0.1409-0.1166,0.2778-0.2385,0.4244-0.3475
				c0.7806-0.5804,1.6486-0.8384,2.6242-0.7187c0.9659,0.1185,1.7473,0.5527,2.3377,1.3267
				c0.2558,0.3353,0.4404,0.7085,0.5744,1.1071c0.1621,0.4821,0.2397,0.9795,0.2596,1.4863
				c0.0068,0.174,0.0032,0.3484,0.0032,0.5226c0.0002,1.298,0.0002,2.596,0,3.8939c0,0.0784-0.0006,0.1568-0.0032,0.2351
				c-0.0013,0.0402-0.0269,0.0616-0.0657,0.065c-0.0346,0.003-0.0695,0.0041-0.1043,0.0043
				c-0.5926,0.0025-1.1851,0.0049-1.7777,0.0067c-0.0434,0.0001-0.0875-0.0011-0.1298-0.0093
				c-0.0232-0.0045-0.0466-0.0216-0.047-0.0535c-0.0008-0.0783-0.0035-0.1566-0.0035-0.2349
				c-0.0002-1.3764-0.0016-2.7528,0.0009-4.1291c0.0006-0.3158-0.0272-0.6269-0.1246-0.9276
				c-0.2027-0.6262-0.5905-1.0906-1.2345-1.2796c-1.0266-0.3013-2.0401,0.0618-2.5678,1.0647
				c-0.1722,0.3273-0.267,0.6791-0.2779,1.0509c-0.0028,0.0958-0.0029,0.1916-0.0029,0.2874
				c-0.0002,1.3067-0.0001,2.6134-0.0001,3.9201c0,0.0949,0,0.1897,0,0.2729c-0.0622,0.0444-0.1156,0.0384-0.1674,0.0384
				c-0.5926,0.0003-1.1852,0.0002-1.7778,0.0002c-0.0261,0-0.0523-0.0001-0.0784-0.0012c-0.0589-0.0023-0.0993-0.0239-0.0978-0.0917
				c0.001-0.0435-0.0007-0.0871-0.0007-0.1307c0-2.7005,0-5.401,0-8.1015c0-0.0435,0.001-0.0871,0.0017-0.1306
				c0.0008-0.051,0.0278-0.0808,0.0774-0.0855c0.0432-0.0041,0.087-0.0031,0.1305-0.0032c0.4967-0.0002,0.9935-0.0001,1.4902-0.0001
				c0.0349,0,0.0698-0.0011,0.1046,0.0008c0.0903,0.0049,0.1063,0.0182,0.1166,0.1032c0.0357,0.2938,0.0704,0.5877,0.1054,0.8816
				C51.2017,90.0367,51.2053,90.069,51.2143,90.1472z"/>
			<path class="st7" d="M66.5489,94.8442c0.5892,0.5633,1.3126,0.8632,2.0901,1.0569c0.2631,0.0655,0.5306,0.1035,0.7999,0.1149
				c0.3347,0.0142,0.6587-0.0478,0.9626-0.1945c0.1503-0.0725,0.2841-0.169,0.3956-0.2946
				c0.1131-0.1274,0.1854-0.2749,0.2012-0.4445c0.0263-0.2818-0.0616-0.5143-0.3099-0.6713
				c-0.1797-0.1137-0.3801-0.1697-0.586-0.2088c-0.3086-0.0586-0.6216-0.0782-0.9339-0.105
				c-0.6184-0.0531-1.2219-0.1735-1.7971-0.4154c-0.2907-0.1223-0.5623-0.2767-0.8034-0.4808
				c-0.4922-0.4168-0.7494-0.95-0.7782-1.5932c-0.0126-0.2797,0.0059-0.5564,0.0842-0.8277
				c0.1402-0.486,0.4198-0.8747,0.8164-1.1831c0.4414-0.3433,0.9482-0.5445,1.4871-0.6692
				c0.5294-0.1225,1.0664-0.1542,1.6093-0.1259c0.4627,0.0241,0.9175,0.0817,1.3619,0.2185
				c0.5668,0.1745,1.0642,0.4688,1.5126,0.8516c0.0123,0.0106,0.0183,0.0285,0.0278,0.044c0.0058,0.0601-0.0439,0.0903-0.0755,0.128
				c-0.3191,0.3805-0.6399,0.7596-0.9602,1.139c-0.0225,0.0266-0.0421,0.0565-0.0682,0.0789
				c-0.0274,0.0235-0.0622,0.0311-0.0944,0.0056c-0.0341-0.0271-0.0662-0.0566-0.0998-0.0843
				c-0.4137-0.343-0.8905-0.53-1.4224-0.5979c-0.3751-0.0479-0.7468-0.0482-1.1196,0.0091
				c-0.2256,0.0347-0.443,0.0956-0.6358,0.2212c-0.2292,0.1493-0.3489,0.3591-0.3282,0.6388
				c0.0143,0.1929,0.1014,0.3486,0.2458,0.4737c0.1339,0.116,0.2916,0.1876,0.459,0.2402c0.3095,0.0972,0.6283,0.1344,0.9507,0.1548
				c0.6093,0.0386,1.2122,0.1164,1.7952,0.3097c0.2823,0.0936,0.5509,0.2158,0.7964,0.3837
				c0.4484,0.3067,0.751,0.7187,0.8891,1.2477c0.128,0.4899,0.1408,0.9811,0.01,1.4714c-0.1745,0.654-0.5699,1.1454-1.1335,1.5085
				c-0.4078,0.2627-0.8561,0.4221-1.3299,0.5138c-0.6468,0.1252-1.297,0.1273-1.9514,0.0668
				c-0.5861-0.0542-1.1495-0.1857-1.6834-0.4341c-0.5271-0.2453-0.9856-0.5874-1.3905-1.0027
				c-0.0117-0.012-0.0171-0.03-0.0253-0.0451C65.6096,96.1443,66.3896,95.0097,66.5489,94.8442z"/>
			<path class="st7" d="M59.933,92.9709c0-0.6009,0.0001-1.2017-0.0001-1.8026c0-0.0696-0.0003-0.1393-0.0025-0.2089
				c-0.0016-0.0514-0.0327-0.0786-0.0817-0.0808c-0.0696-0.0032-0.1393-0.0025-0.209-0.0026
				c-0.392-0.0003-0.784,0.0007-1.1761-0.0011c-0.1109-0.0005-0.1231-0.012-0.1235-0.1202
				c-0.0017-0.5225-0.0019-1.045-0.0001-1.5675c0.0004-0.126,0.0181-0.1405,0.1597-0.1411c0.4007-0.0017,0.8015-0.001,1.2022-0.0005
				c0.2457,0.0003,0.2312,0.007,0.2311-0.2226c-0.0002-0.566-0.0002-1.1321,0.0001-1.6981c0-0.0696,0.0005-0.1393,0.0039-0.2087
				c0.0025-0.051,0.0346-0.0749,0.0841-0.08c0.1212-0.0126,0.2421-0.0274,0.3634-0.0394c0.4157-0.0413,0.8316-0.0812,1.2473-0.1228
				c0.1126-0.0112,0.2246-0.0278,0.3372-0.0388c0.05-0.0049,0.0835,0.0214,0.0864,0.0731c0.004,0.0694,0.0045,0.1391,0.0046,0.2087
				c0.0003,0.6096,0.0001,1.2191,0.0002,1.8287c0,0.0696,0.0012,0.1393,0.0015,0.209c0.0003,0.0665,0.0385,0.0902,0.0993,0.0901
				c0.0784-0.0001,0.1568,0.0007,0.2352,0.0007c0.575,0.0001,1.1499-0.0001,1.7249,0.0002c0.0696,0,0.1393,0.0005,0.2087,0.0046
				c0.0376,0.0022,0.0641,0.0263,0.0702,0.0642c0.0055,0.0341,0.0072,0.0692,0.0072,0.1038
				c0.0004,0.5051,0.0012,1.0102-0.0003,1.5152c-0.0004,0.1319-0.0083,0.1378-0.1288,0.1418
				c-0.0609,0.002-0.1219,0.0006-0.1829,0.0006c-0.5924,0-1.1848-0.0001-1.7772,0.0002c-0.0696,0-0.1394-0.0004-0.2087,0.0052
				c-0.0368,0.003-0.0645,0.0308-0.0686,0.0677c-0.0057,0.0517-0.0043,0.1043-0.0043,0.1565
				c-0.0002,1.1408,0.0002,2.2815-0.0006,3.4223c-0.0001,0.1138,0.0147,0.2251,0.0317,0.3373
				c0.0857,0.5642,0.4978,0.9259,1.1541,0.8829c0.2971-0.0195,0.5833-0.0905,0.8544-0.2179c0.0639-0.03,0.0937-0.0159,0.1167,0.0528
				c0.0882,0.2637,0.1739,0.5282,0.2602,0.7925c0.0864,0.2644,0.1733,0.5286,0.2584,0.7934
				c0.0415,0.1292,0.0405,0.1311-0.0698,0.1755c-0.2993,0.1206-0.609,0.2034-0.927,0.2588
				c-0.4147,0.0723-0.8327,0.083-1.2498,0.0498c-1.1217-0.0894-2.0019-0.6795-2.3626-1.8519
				c-0.1078-0.3506-0.1653-0.7119-0.1665-1.0798c-0.0019-0.5834-0.0005-1.1669-0.0005-1.7503
				C59.9345,92.9709,59.9338,92.9709,59.933,92.9709z"/>
			<path class="st7" d="M34.6629,93.2905c0-1.3229,0-2.6459,0-3.9688c0-0.0696-0.0017-0.1393,0.001-0.2089
				c0.0038-0.0985,0.0218-0.118,0.1271-0.1183c0.6182-0.0014,1.2364-0.0014,1.8546,0c0.1151,0.0003,0.1304,0.0195,0.1345,0.139
				c0.0021,0.0609,0.0006,0.1218,0.0006,0.1828c0,2.6459,0.0006,5.2917-0.0007,7.9376c-0.0002,0.3545,0.0482,0.3062-0.2982,0.3079
				c-0.5137,0.0026-1.0274,0.0008-1.5411,0.0005c-0.0696,0-0.1392-0.0013-0.2088-0.0038c-0.0399-0.0014-0.0641-0.0246-0.0654-0.0644
				c-0.0026-0.0782-0.0034-0.1566-0.0034-0.2349C34.6629,95.9363,34.6629,94.6134,34.6629,93.2905z"/>
			<path class="st7" d="M75.7448,94.5196c0.7059,0.0037,1.2237,0.5371,1.2184,1.2571c-0.0051,0.6931-0.5392,1.2272-1.2288,1.227
				c-0.7371-0.0002-1.2399-0.5931-1.2303-1.2506C74.516,94.9261,75.1618,94.4988,75.7448,94.5196z"/>
			<path class="st7" d="M34.6963,87.5573c-0.0392-0.2587-0.0373-3.3518-0.0026-3.557c0.0416-0.016,0.0643,0.0164,0.0886,0.0378
				c0.6323,0.558,1.264,1.1166,1.8957,1.6751c0.013,0.0115,0.0269,0.0223,0.0388,0.0348c0.0368,0.0388,0.0327,0.0765-0.0068,0.1103
				c-0.2575,0.2205-0.515,0.441-0.773,0.6609c-0.3639,0.3101-0.7281,0.62-1.0928,0.9291
				C34.8049,87.4818,34.7611,87.5099,34.6963,87.5573z"/>
		</g>
	</g>
	<g id="Inverse">
		<g class="st1">
			<path class="st3" d="M78.4715,52.824l-17.061,23.7362l-11.4147,5.1615l-11.4064-5.1615L21.5285,52.824l8.3889,4.1459v-0.0042
				l-4.8635-24.8878v-0.0014l-0.0014-0.0014v-0.0042l0.0042,0.0042l0.0069,0.0139l15.6938,33.056
				c0,0.0056,0.0014,0.0111,0.0042,0.0167c1.0063,4.1681,4.7608,7.2647,9.2384,7.2647c4.4776,0,8.2321-3.0966,9.2384-7.2647
				l15.7091-33.0866l-0.0042,0.0056l0.0083-0.018l-4.869,24.9072L78.4715,52.824z"/>
			<path class="st4" d="M41.8762,57.9831c-0.8772,1.4393-1.381,3.1299-1.381,4.9384c0,0.7662,0.0902,1.5101,0.2623,2.2235
				c0,0.0056,0.0014,0.0111,0.0042,0.0167L25.0539,32.0779l0.0097,0.0111l10.7249,13.9089L50,0.1336L41.8762,57.9831z"/>
			<path class="st5" d="M50,0.1336l-2.6774,53.6411l-0.0153,0.0292c-2.2666,0.6662-4.2153,2.2124-5.4311,4.1792L50,0.1336z"/>
			<path class="st4" d="M59.2425,65.145c0.1721-0.7134,0.2623-1.4574,0.2623-2.2235c0-1.8085-0.5038-3.4991-1.381-4.9384L50,0.1336
				l14.2115,45.8643l10.7318-13.9172L59.2425,65.145z"/>
			<path class="st5" d="M58.1238,57.9831c-1.2159-1.9668-3.1646-3.513-5.4311-4.1792l-0.0153-0.0292L50,0.1336L58.1238,57.9831z"/>
		</g>
		<g class="st1">
			<path class="st7" d="M9.0458,93.2749c-0.0096,0.0795,0.0511,0.1125,0.0896,0.156c0.7054,0.7954,1.4119,1.5898,2.1183,2.3843
				c0.4342,0.4885,0.8684,0.977,1.303,1.4651c0.0522,0.0586,0.1123,0.1121,0.0966,0.2028c-0.0061,0.035-0.0116,0.0707-0.0565,0.0739
				c-0.052,0.0037-0.1043,0.0058-0.1565,0.0058c-0.7758,0.0003-1.5517-0.0042-2.3274,0.0041
				c-0.1479,0.0016-0.2399-0.0515-0.3319-0.1572c-1.0751-1.2361-2.1537-2.4692-3.2313-3.7031
				c-0.0344-0.0394-0.0698-0.078-0.1023-0.1188c-0.0353-0.0443-0.0793-0.0642-0.1358-0.0623
				c-0.0522,0.0018-0.1046,0.0001-0.1569,0.0001c-0.5579,0-1.1158-0.0001-1.6737,0.0001c-0.061,0-0.122,0.0008-0.183,0.0015
				c-0.0507,0.0006-0.0819,0.0249-0.0837,0.0768c-0.0026,0.0783-0.0028,0.1568-0.0029,0.2351
				c-0.0002,1.1328-0.0001,2.2655-0.0001,3.3983c0,0.0697,0.0015,0.1395-0.0008,0.2091c-0.0034,0.1015-0.0158,0.1126-0.1277,0.1159
				c-0.0697,0.0021-0.1395,0.0006-0.2092,0.0006c-0.5579,0-1.1158,0.0007-1.6737-0.0007c-0.0863-0.0002-0.1743,0.0141-0.2581-0.0171
				c-0.0364-0.0666-0.0211-0.1377-0.0212-0.2062C1.92,93.4527,1.9201,89.5664,1.9202,85.6801c0-0.0523-0.0016-0.1048,0.0023-0.1568
				c0.0037-0.0479,0.0288-0.0807,0.0816-0.0825c0.0435-0.0015,0.0871-0.003,0.1306-0.0028
				c1.2464,0.0059,2.4928,0.0123,3.7392,0.0182c0.6101,0.0029,1.2203,0.0077,1.8305,0.0066
				c0.6781-0.0012,1.3368,0.1039,1.9603,0.3749c1.2758,0.5546,2.0568,1.5141,2.3153,2.8845
				c0.1365,0.7236,0.0875,1.4426-0.1335,2.143c-0.333,1.0553-1.0341,1.7739-2.0585,2.1826
				C9.5463,93.1442,9.2938,93.2062,9.0458,93.2749z M6.1381,91.4506c0.4874,0,0.9749,0.0008,1.4623-0.0004
				c0.2437-0.0006,0.4872-0.0069,0.7252-0.0695c0.7074-0.1859,1.1689-0.6196,1.3557-1.335
				c0.0671-0.2568,0.0778-0.5169,0.0449-0.7768c-0.0889-0.7025-0.4486-1.2115-1.1052-1.4956
				c-0.2829-0.1224-0.5819-0.1681-0.8902-0.1681c-1.1141,0.0001-2.2283-0.0035-3.3424-0.0055
				c-0.0348-0.0001-0.0696,0.0012-0.1043,0.0037c-0.0415,0.0029-0.0601,0.0296-0.0617,0.0682
				c-0.0023,0.0521-0.0031,0.1043-0.0031,0.1565c-0.0002,1.1311-0.0002,2.2623,0,3.3934c0,0.0522,0.0007,0.1044,0.0031,0.1565
				c0.0017,0.0385,0.0198,0.0665,0.0617,0.0681c0.0695,0.0027,0.1391,0.0042,0.2087,0.0042
				C5.0413,91.4507,5.5897,91.4506,6.1381,91.4506z"/>
			<path class="st7" d="M30.7012,90.0572c0.0023-0.0847,0.0065-0.1694,0.0066-0.2541c0.0004-1.3242,0.0003-2.6485,0.0003-3.9727
				c0-0.0523-0.0005-0.1046,0.0001-0.1568c0.0022-0.1983,0.0024-0.2002,0.2016-0.2005c0.5752-0.001,1.1504-0.0004,1.7257-0.0004
				c0.0261,0,0.0523-0.0005,0.0784,0.0004c0.1167,0.0041,0.1231,0.0091,0.1264,0.115c0.0022,0.0696,0.0008,0.1394,0.0008,0.2091
				c0,3.0318,0,6.0636,0,9.0954c0,0.7928,0,1.5856-0.0001,2.3784c0,0.0697-0.0008,0.1394-0.0018,0.209
				c-0.0007,0.0526-0.0308,0.0768-0.0805,0.0806c-0.0173,0.0014-0.0348,0.0019-0.0522,0.0019
				c-0.5752,0.0001-1.1504,0.0008-1.7257-0.0007c-0.1174-0.0003-0.1213-0.0036-0.1387-0.1362
				c-0.034-0.2589-0.0631-0.5184-0.0944-0.7777c-0.0052-0.0432-0.0057-0.088-0.0188-0.1287
				c-0.0063-0.0195-0.0392-0.0405-0.0631-0.0167c-0.0366,0.0364-0.0688,0.0775-0.1007,0.1183
				c-0.4185,0.5367-0.9714,0.8649-1.6249,1.0244c-0.5121,0.125-1.0319,0.1398-1.5569,0.0783
				c-0.4967-0.0582-0.9754-0.1737-1.4293-0.3834c-1.1487-0.5305-1.8672-1.4258-2.2029-2.6332
				c-0.1985-0.7139-0.2172-1.4428-0.1333-2.1765c0.0517-0.4525,0.1569-0.8912,0.3357-1.31
				c0.4782-1.1201,1.3149-1.8395,2.4745-2.1894c0.5121-0.1545,1.039-0.2316,1.5728-0.2047c0.7906,0.0399,1.518,0.2821,2.163,0.7502
				C30.3545,89.7148,30.5157,89.8843,30.7012,90.0572z M28.0844,95.7896c0.1827-0.0074,0.3636-0.021,0.5434-0.0637
				c1.3246-0.3151,2.1679-1.6618,1.8387-3.006c-0.3391-1.3843-1.6861-2.0617-2.7525-1.8751
				c-0.9454,0.1654-1.5833,0.679-1.8838,1.5915c-0.1613,0.4899-0.1685,0.9927-0.056,1.4955
				C26.0224,95.0408,26.9546,95.7891,28.0844,95.7896z"/>
			<path class="st7" d="M96.2869,89.9894c0-0.2823-0.0002-0.5072,0.0001-0.7322c0.0001-0.0609-0.0001-0.1219,0.0035-0.1827
				c0.0023-0.0396,0.0301-0.0609,0.0677-0.0644c0.0433-0.004,0.087-0.005,0.1304-0.005c0.4706-0.0003,0.9412-0.001,1.4118,0.0003
				c0.1793,0.0005,0.1794,0.0026,0.1818,0.1921c0.0004,0.0348,0.0001,0.0697,0.0001,0.1045c0,2.0994,0.0001,4.1988,0,6.2983
				c0,0.471-0.0231,0.9399-0.1232,1.4023c-0.104,0.4804-0.271,0.9348-0.5469,1.3452c-0.4099,0.61-0.9842,0.9996-1.6708,1.2328
				c-0.4893,0.1662-0.996,0.2475-1.5114,0.2654c-0.4791,0.0166-0.9582,0.0127-1.435-0.0512
				c-0.7282-0.0977-1.4343-0.2713-2.0948-0.6035c-0.2026-0.1019-0.3972-0.2169-0.5789-0.3527
				c-0.1497-0.1119-0.1509-0.1138-0.0598-0.2679c0.2216-0.3744,0.4451-0.7477,0.6677-1.1216
				c0.0265-0.0444,0.047-0.0935,0.1047-0.1223c0.0252,0.0164,0.0548,0.0336,0.0821,0.0537
				c0.6012,0.4436,1.2813,0.6867,2.0136,0.8068c0.4338,0.0712,0.868,0.0711,1.3027,0.0384c0.2605-0.0196,0.5152-0.08,0.76-0.1754
				c0.5381-0.2095,0.8912-0.5932,1.0681-1.1399c0.1358-0.4195,0.1466-0.8509,0.1261-1.2775
				c-0.0526-0.0354-0.075-0.0025-0.0985,0.0192c-0.5579,0.5153-1.2239,0.7767-1.9722,0.8641
				c-0.7969,0.0931-1.5671-0.001-2.2976-0.327c-1.261-0.5628-1.9864-1.539-2.1839-2.9066c-0.0952-0.6591-0.0366-1.3053,0.191-1.9292
				c0.3879-1.0635,1.1374-1.7739,2.1909-2.1656c0.724-0.2692,1.4726-0.3276,2.237-0.2236c0.2688,0.0366,0.5303,0.0983,0.7836,0.1915
				c0.4132,0.1522,0.7834,0.376,1.097,0.6884C96.1701,89.88,96.2077,89.9143,96.2869,89.9894z M93.8771,94.94
				c0.1903,0.0098,0.3979-0.0121,0.6025-0.0588c0.4148-0.0946,0.7895-0.2698,1.098-0.5687
				c0.4961-0.4806,0.6937-1.0803,0.6455-1.7541c-0.0619-0.865-0.4931-1.4994-1.2993-1.8329
				c-0.723-0.2991-1.4629-0.2856-2.1836,0.0277c-0.5645,0.2454-0.9485,0.6692-1.1378,1.2569
				c-0.1052,0.3266-0.1319,0.6628-0.0871,1.0061c0.1043,0.7996,0.5209,1.3695,1.2508,1.7054
				C93.1102,94.8801,93.477,94.9498,93.8771,94.94z"/>
			<path class="st7" d="M85.3485,89.942c0-0.2757-0.0013-0.5364,0.0006-0.7971c0.0009-0.1255,0.012-0.138,0.1307-0.1389
				c0.2963-0.0023,0.5926-0.001,0.8889-0.0011c0.2092,0,0.4183,0.0001,0.6275,0.0003c0.0435,0,0.0872-0.0005,0.1265,0.0296
				c0.0279,0.0825,0.0143,0.1703,0.0143,0.2566c0.0008,2.1343-0.0009,4.2687,0.0016,6.403c0.0007,0.5693-0.0547,1.1302-0.2175,1.677
				c-0.2749,0.9231-0.8239,1.6203-1.703,2.0395c-0.3313,0.158-0.6802,0.265-1.0406,0.3314
				c-0.7163,0.1319-1.4359,0.138-2.1597,0.0665c-0.6361-0.0629-1.253-0.1996-1.8478-0.4321
				c-0.3578-0.1399-0.6967-0.3166-1.0051-0.5479c-0.0413-0.031-0.08-0.0657-0.132-0.1086c0.2683-0.4713,0.5515-0.927,0.811-1.3699
				c0.0654-0.0308,0.091-0.002,0.1169,0.0179c0.4981,0.3855,1.0693,0.6098,1.6753,0.7546c0.5475,0.1309,1.1037,0.1505,1.662,0.1025
				c0.2602-0.0224,0.515-0.0821,0.7591-0.1789c0.5165-0.2048,0.8647-0.5686,1.0442-1.096c0.0764-0.2243,0.1232-0.4547,0.1389-0.6889
				c0.0145-0.2161,0.0031-0.4339,0.0031-0.6517c-0.0535-0.0264-0.0767,0.021-0.1055,0.0476
				c-0.544,0.5025-1.1937,0.7601-1.922,0.8542c-0.7321,0.0946-1.4481,0.0273-2.1321-0.2367
				c-1.344-0.5188-2.1526-1.4913-2.3817-2.924c-0.102-0.6377-0.0623-1.2697,0.1403-1.8837
				c0.3513-1.0647,1.0611-1.8062,2.0944-2.2257c0.9498-0.3856,1.9286-0.43,2.9179-0.1616c0.5133,0.1393,0.9633,0.3954,1.3435,0.7706
				C85.2333,89.8854,85.2592,89.9359,85.3485,89.942z M82.856,90.525c-0.1611,0.0077-0.3872,0.0144-0.6087,0.0705
				c-0.4127,0.1045-0.7823,0.2864-1.0867,0.5898c-0.3469,0.3457-0.5346,0.7673-0.5928,1.2489
				c-0.1077,0.891,0.2645,1.925,1.391,2.3425c0.5994,0.2221,1.2123,0.2292,1.8197,0.0379c0.5153-0.1623,0.9312-0.4688,1.2052-0.9434
				c0.2613-0.4525,0.3486-0.9408,0.2792-1.4591c-0.1105-0.825-0.5618-1.3861-1.3209-1.7063
				C83.6168,90.5686,83.2725,90.5215,82.856,90.525z"/>
			<path class="st7" d="M45.3578,96.4538c-0.0568-0.0018-0.0728,0.0303-0.0909,0.0585c-0.2366,0.3684-0.5616,0.6394-0.9427,0.8456
				c-0.5526,0.2989-1.141,0.4599-1.7732,0.4636c-0.5981,0.0035-1.1815-0.0788-1.7411-0.2889
				c-1.2066-0.4531-1.9846-1.3128-2.3701-2.5352c-0.1851-0.5871-0.2466-1.1918-0.2382-1.8042
				c0.0074-0.5423,0.0757-1.0775,0.2516-1.5926c0.4738-1.3876,1.4408-2.2462,2.8478-2.6186
				c0.4906-0.1299,0.9939-0.1811,1.5014-0.1564c0.5729,0.0279,1.1155,0.1713,1.6154,0.4599
				c0.3049,0.176,0.5715,0.3963,0.7896,0.6745c0.0348,0.0444,0.0522,0.112,0.1233,0.12c0.0522-0.0363,0.0417-0.0921,0.0446-0.1404
				c0.0112-0.1825,0.0171-0.3654,0.0277-0.548c0.0056-0.0955,0.0158-0.1908,0.0262-0.286c0.0055-0.0509,0.0389-0.0731,0.0886-0.0732
				c0.061-0.0002,0.122-0.0009,0.183-0.0009c0.4967-0.0001,0.9934-0.0001,1.4901,0c0.061,0,0.122,0.0002,0.183,0.001
				c0.0661,0.0009,0.0904,0.0415,0.0922,0.1008c0.0016,0.0522,0.0012,0.1045,0.0012,0.1568c0,2.6742,0,5.3484,0,8.0226
				c0,0.0435,0.0012,0.0872-0.0005,0.1306c-0.0041,0.1043-0.0157,0.119-0.1242,0.1193c-0.5926,0.0014-1.1851,0.0013-1.7777-0.0003
				c-0.0917-0.0002-0.1057-0.0161-0.1131-0.1047c-0.0209-0.2516-0.0401-0.5034-0.0602-0.7551
				C45.3849,96.617,45.3879,96.53,45.3578,96.4538z M45.3177,93.2788c0.0041-0.2479-0.0456-0.606-0.1447-0.8906
				c-0.2723-0.7817-0.7807-1.3319-1.5909-1.5591c-0.5215-0.1462-1.0507-0.1397-1.5714,0.0211
				c-0.7599,0.2346-1.2753,0.7304-1.5343,1.4804c-0.2109,0.6108-0.2161,1.2335-0.0275,1.8496
				c0.2411,0.7876,0.7628,1.3158,1.5455,1.5721c0.4456,0.146,0.904,0.1668,1.3675,0.0791c0.5905-0.1117,1.0727-0.3971,1.4322-0.8797
				C45.1497,94.4742,45.3038,93.9291,45.3177,93.2788z"/>
			<path class="st7" d="M20.204,97.5346c-0.0232-0.2653-0.0468-0.5334-0.0698-0.8016c-0.0067-0.0781-0.0105-0.1564-0.0185-0.2343
				c-0.0015-0.0142-0.0142-0.0328-0.0269-0.0391c-0.0264-0.013-0.0462,0.0029-0.0613,0.0256
				c-0.5076,0.7636-1.2623,1.1321-2.1316,1.2754c-1.0851,0.1788-2.1181-0.0096-3.0629-0.5815
				c-0.8434-0.5105-1.3676-1.2737-1.651-2.2075c-0.1345-0.4432-0.2068-0.898-0.2212-1.362
				c-0.0179-0.5769,0.0083-1.149,0.1598-1.7099c0.4191-1.5512,1.4174-2.5169,2.9654-2.9199
				c0.4484-0.1167,0.9083-0.1638,1.372-0.1528c0.5739,0.0137,1.1201,0.1447,1.6282,0.4166c0.3417,0.1829,0.6401,0.42,0.8774,0.7294
				c0.0264,0.0345,0.0512,0.0704,0.0804,0.1024c0.0084,0.0092,0.0324,0.0132,0.0443,0.008c0.0131-0.0057,0.028-0.0241,0.029-0.0378
				c0.0069-0.0955,0.0097-0.1913,0.0152-0.287c0.0118-0.2087,0.0224-0.4175,0.0377-0.626c0.0065-0.0893,0.0205-0.1005,0.1149-0.1007
				c0.6014-0.0011,1.2028-0.0013,1.8042,0.0002c0.1069,0.0003,0.1183,0.0153,0.1224,0.1227
				c0.002,0.0522,0.0007,0.1045,0.0007,0.1568c0,2.6573,0.0001,5.3145-0.0003,7.9718c0,0.0854-0.0044,0.1707-0.0066,0.253
				C21.9713,97.5738,20.4117,97.572,20.204,97.5346z M17.5977,95.8786c0.166,0.0022,0.3294-0.0142,0.4935-0.0439
				c0.7225-0.131,1.2772-0.5081,1.6232-1.1524c0.478-0.8902,0.4826-1.8036,0.0296-2.7053c-0.3009-0.599-0.7944-0.9874-1.442-1.1592
				c-0.4791-0.1271-0.9699-0.1292-1.448,0.002c-0.8234,0.2259-1.3836,0.7444-1.6458,1.5648
				c-0.1999,0.6254-0.1947,1.2559,0.0156,1.8748c0.2443,0.7188,0.7312,1.2129,1.4518,1.4682
				C16.9736,95.8332,17.2807,95.887,17.5977,95.8786z"/>
			<path class="st7" d="M51.2143,90.1472c0.0892-0.0765,0.1408-0.122,0.1939-0.166c0.1409-0.1166,0.2778-0.2385,0.4244-0.3475
				c0.7806-0.5804,1.6486-0.8384,2.6242-0.7187c0.9659,0.1185,1.7473,0.5527,2.3377,1.3267
				c0.2558,0.3353,0.4404,0.7085,0.5744,1.1071c0.1621,0.4821,0.2397,0.9795,0.2596,1.4863
				c0.0068,0.174,0.0032,0.3484,0.0032,0.5226c0.0002,1.298,0.0002,2.596,0,3.8939c0,0.0784-0.0006,0.1568-0.0032,0.2351
				c-0.0013,0.0402-0.0269,0.0616-0.0657,0.065c-0.0346,0.003-0.0695,0.0041-0.1043,0.0043
				c-0.5926,0.0025-1.1851,0.0049-1.7777,0.0067c-0.0434,0.0001-0.0875-0.0011-0.1298-0.0093
				c-0.0232-0.0045-0.0466-0.0216-0.047-0.0535c-0.0008-0.0783-0.0035-0.1566-0.0035-0.2349
				c-0.0002-1.3764-0.0016-2.7528,0.0009-4.1291c0.0006-0.3158-0.0272-0.6269-0.1246-0.9276
				c-0.2027-0.6262-0.5905-1.0906-1.2345-1.2796c-1.0266-0.3013-2.0401,0.0618-2.5678,1.0647
				c-0.1722,0.3273-0.267,0.6791-0.2779,1.0509c-0.0028,0.0958-0.0029,0.1916-0.0029,0.2874
				c-0.0002,1.3067-0.0001,2.6134-0.0001,3.9201c0,0.0949,0,0.1897,0,0.2729c-0.0622,0.0444-0.1156,0.0384-0.1674,0.0384
				c-0.5926,0.0003-1.1852,0.0002-1.7778,0.0002c-0.0261,0-0.0523-0.0001-0.0784-0.0012c-0.0589-0.0023-0.0993-0.0239-0.0978-0.0917
				c0.001-0.0435-0.0007-0.0871-0.0007-0.1307c0-2.7005,0-5.401,0-8.1015c0-0.0435,0.001-0.0871,0.0017-0.1306
				c0.0008-0.051,0.0278-0.0808,0.0774-0.0855c0.0432-0.0041,0.087-0.0031,0.1305-0.0032c0.4967-0.0002,0.9935-0.0001,1.4902-0.0001
				c0.0349,0,0.0698-0.0011,0.1046,0.0008c0.0903,0.0049,0.1063,0.0182,0.1166,0.1032c0.0357,0.2938,0.0704,0.5877,0.1054,0.8816
				C51.2017,90.0367,51.2053,90.069,51.2143,90.1472z"/>
			<path class="st7" d="M66.5489,94.8442c0.5892,0.5633,1.3126,0.8632,2.0901,1.0569c0.2631,0.0655,0.5306,0.1035,0.7999,0.1149
				c0.3347,0.0142,0.6587-0.0478,0.9626-0.1945c0.1503-0.0725,0.2841-0.169,0.3956-0.2946
				c0.1131-0.1274,0.1854-0.2749,0.2012-0.4445c0.0263-0.2818-0.0616-0.5143-0.3099-0.6713
				c-0.1797-0.1137-0.3801-0.1697-0.586-0.2088c-0.3086-0.0586-0.6216-0.0782-0.9339-0.105
				c-0.6184-0.0531-1.2219-0.1735-1.7971-0.4154c-0.2907-0.1223-0.5623-0.2767-0.8034-0.4808
				c-0.4922-0.4168-0.7494-0.95-0.7782-1.5932c-0.0126-0.2797,0.0059-0.5564,0.0842-0.8277
				c0.1402-0.486,0.4198-0.8747,0.8164-1.1831c0.4414-0.3433,0.9482-0.5445,1.4871-0.6692
				c0.5294-0.1225,1.0664-0.1542,1.6093-0.1259c0.4627,0.0241,0.9175,0.0817,1.3619,0.2185
				c0.5668,0.1745,1.0642,0.4688,1.5126,0.8516c0.0123,0.0106,0.0183,0.0285,0.0278,0.044c0.0058,0.0601-0.0439,0.0903-0.0755,0.128
				c-0.3191,0.3805-0.6399,0.7596-0.9602,1.139c-0.0225,0.0266-0.0421,0.0565-0.0682,0.0789
				c-0.0274,0.0235-0.0622,0.0311-0.0944,0.0056c-0.0341-0.0271-0.0662-0.0566-0.0998-0.0843
				c-0.4137-0.343-0.8905-0.53-1.4224-0.5979c-0.3751-0.0479-0.7468-0.0482-1.1196,0.0091
				c-0.2256,0.0347-0.443,0.0956-0.6358,0.2212c-0.2292,0.1493-0.3489,0.3591-0.3282,0.6388
				c0.0143,0.1929,0.1014,0.3486,0.2458,0.4737c0.1339,0.116,0.2916,0.1876,0.459,0.2402c0.3095,0.0972,0.6283,0.1344,0.9507,0.1548
				c0.6093,0.0386,1.2122,0.1164,1.7952,0.3097c0.2823,0.0936,0.5509,0.2158,0.7964,0.3837
				c0.4484,0.3067,0.751,0.7187,0.8891,1.2477c0.128,0.4899,0.1408,0.9811,0.01,1.4714c-0.1745,0.654-0.5699,1.1454-1.1335,1.5085
				c-0.4078,0.2627-0.8561,0.4221-1.3299,0.5138c-0.6468,0.1252-1.297,0.1273-1.9514,0.0668
				c-0.5861-0.0542-1.1495-0.1857-1.6834-0.4341c-0.5271-0.2453-0.9856-0.5874-1.3905-1.0027
				c-0.0117-0.012-0.0171-0.03-0.0253-0.0451C65.6096,96.1443,66.3896,95.0097,66.5489,94.8442z"/>
			<path class="st7" d="M59.933,92.9709c0-0.6009,0.0001-1.2017-0.0001-1.8026c0-0.0696-0.0003-0.1393-0.0025-0.2089
				c-0.0016-0.0514-0.0327-0.0786-0.0817-0.0808c-0.0696-0.0032-0.1393-0.0025-0.209-0.0026
				c-0.392-0.0003-0.784,0.0007-1.1761-0.0011c-0.1109-0.0005-0.1231-0.012-0.1235-0.1202
				c-0.0017-0.5225-0.0019-1.045-0.0001-1.5675c0.0004-0.126,0.0181-0.1405,0.1597-0.1411c0.4007-0.0017,0.8015-0.001,1.2022-0.0005
				c0.2457,0.0003,0.2312,0.007,0.2311-0.2226c-0.0002-0.566-0.0002-1.1321,0.0001-1.6981c0-0.0696,0.0005-0.1393,0.0039-0.2087
				c0.0025-0.051,0.0346-0.0749,0.0841-0.08c0.1212-0.0126,0.2421-0.0274,0.3634-0.0394c0.4157-0.0413,0.8316-0.0812,1.2473-0.1228
				c0.1126-0.0112,0.2246-0.0278,0.3372-0.0388c0.05-0.0049,0.0835,0.0214,0.0864,0.0731c0.004,0.0694,0.0045,0.1391,0.0046,0.2087
				c0.0003,0.6096,0.0001,1.2191,0.0002,1.8287c0,0.0696,0.0012,0.1393,0.0015,0.209c0.0003,0.0665,0.0385,0.0902,0.0993,0.0901
				c0.0784-0.0001,0.1568,0.0007,0.2352,0.0007c0.575,0.0001,1.1499-0.0001,1.7249,0.0002c0.0696,0,0.1393,0.0005,0.2087,0.0046
				c0.0376,0.0022,0.0641,0.0263,0.0702,0.0642c0.0055,0.0341,0.0072,0.0692,0.0072,0.1038
				c0.0004,0.5051,0.0012,1.0102-0.0003,1.5152c-0.0004,0.1319-0.0083,0.1378-0.1288,0.1418
				c-0.0609,0.002-0.1219,0.0006-0.1829,0.0006c-0.5924,0-1.1848-0.0001-1.7772,0.0002c-0.0696,0-0.1394-0.0004-0.2087,0.0052
				c-0.0368,0.003-0.0645,0.0308-0.0686,0.0677c-0.0057,0.0517-0.0043,0.1043-0.0043,0.1565
				c-0.0002,1.1408,0.0002,2.2815-0.0006,3.4223c-0.0001,0.1138,0.0147,0.2251,0.0317,0.3373
				c0.0857,0.5642,0.4978,0.9259,1.1541,0.8829c0.2971-0.0195,0.5833-0.0905,0.8544-0.2179c0.0639-0.03,0.0937-0.0159,0.1167,0.0528
				c0.0882,0.2637,0.1739,0.5282,0.2602,0.7925c0.0864,0.2644,0.1733,0.5286,0.2584,0.7934
				c0.0415,0.1292,0.0405,0.1311-0.0698,0.1755c-0.2993,0.1206-0.609,0.2034-0.927,0.2588
				c-0.4147,0.0723-0.8327,0.083-1.2498,0.0498c-1.1217-0.0894-2.0019-0.6795-2.3626-1.8519
				c-0.1078-0.3506-0.1653-0.7119-0.1665-1.0798c-0.0019-0.5834-0.0005-1.1669-0.0005-1.7503
				C59.9345,92.9709,59.9338,92.9709,59.933,92.9709z"/>
			<path class="st7" d="M34.6629,93.2905c0-1.3229,0-2.6459,0-3.9688c0-0.0696-0.0017-0.1393,0.001-0.2089
				c0.0038-0.0985,0.0218-0.118,0.1271-0.1183c0.6182-0.0014,1.2364-0.0014,1.8546,0c0.1151,0.0003,0.1304,0.0195,0.1345,0.139
				c0.0021,0.0609,0.0006,0.1218,0.0006,0.1828c0,2.6459,0.0006,5.2917-0.0007,7.9376c-0.0002,0.3545,0.0482,0.3062-0.2982,0.3079
				c-0.5137,0.0026-1.0274,0.0008-1.5411,0.0005c-0.0696,0-0.1392-0.0013-0.2088-0.0038c-0.0399-0.0014-0.0641-0.0246-0.0654-0.0644
				c-0.0026-0.0782-0.0034-0.1566-0.0034-0.2349C34.6629,95.9363,34.6629,94.6134,34.6629,93.2905z"/>
			<path class="st7" d="M75.7448,94.5196c0.7059,0.0037,1.2237,0.5371,1.2184,1.2571c-0.0051,0.6931-0.5392,1.2272-1.2288,1.227
				c-0.7371-0.0002-1.2399-0.5931-1.2303-1.2506C74.516,94.9261,75.1618,94.4988,75.7448,94.5196z"/>
			<path class="st3" d="M34.6963,87.5573c-0.0392-0.2587-0.0373-3.3518-0.0026-3.557c0.0416-0.016,0.0643,0.0164,0.0886,0.0378
				c0.6323,0.558,1.264,1.1166,1.8957,1.6751c0.013,0.0115,0.0269,0.0223,0.0388,0.0348c0.0368,0.0388,0.0327,0.0765-0.0068,0.1103
				c-0.2575,0.2205-0.515,0.441-0.773,0.6609c-0.3639,0.3101-0.7281,0.62-1.0928,0.9291
				C34.8049,87.4818,34.7611,87.5099,34.6963,87.5573z"/>
		</g>
	</g>
	<g id="Original">
		<g class="st1">
			<path class="st3" d="M78.4715,52.824l-17.061,23.7362l-11.4147,5.1615l-11.4064-5.1615L21.5285,52.824l8.3889,4.1459v-0.0042
				l-4.8635-24.8878v-0.0014l-0.0014-0.0014v-0.0042l0.0042,0.0042l0.0069,0.0139l15.6938,33.056
				c0,0.0056,0.0014,0.0111,0.0042,0.0167c1.0063,4.1681,4.7608,7.2647,9.2384,7.2647c4.4776,0,8.2321-3.0966,9.2384-7.2647
				l15.7091-33.0866l-0.0042,0.0056l0.0083-0.018l-4.869,24.9072L78.4715,52.824z"/>
			<path class="st4" d="M41.8762,57.9831c-0.8772,1.4393-1.381,3.1299-1.381,4.9384c0,0.7662,0.0902,1.5101,0.2623,2.2235
				c0,0.0056,0.0014,0.0111,0.0042,0.0167L25.0539,32.0779l0.0097,0.0111l10.7249,13.9089L50,0.1336L41.8762,57.9831z"/>
			<path class="st5" d="M50,0.1336l-2.6774,53.6411l-0.0153,0.0292c-2.2666,0.6662-4.2153,2.2124-5.4311,4.1792L50,0.1336z"/>
			<path class="st4" d="M59.2425,65.145c0.1721-0.7134,0.2623-1.4574,0.2623-2.2235c0-1.8085-0.5038-3.4991-1.381-4.9384L50,0.1336
				l14.2115,45.8643l10.7318-13.9172L59.2425,65.145z"/>
			<path class="st5" d="M58.1238,57.9831c-1.2159-1.9668-3.1646-3.513-5.4311-4.1792l-0.0153-0.0292L50,0.1336L58.1238,57.9831z"/>
		</g>
		<g class="st1">
			<path class="st8" d="M9.0458,93.2749c-0.0096,0.0795,0.0511,0.1125,0.0896,0.156c0.7054,0.7954,1.4119,1.5898,2.1183,2.3843
				c0.4342,0.4885,0.8684,0.977,1.303,1.4651c0.0522,0.0586,0.1123,0.1121,0.0966,0.2028c-0.0061,0.035-0.0116,0.0707-0.0565,0.0739
				c-0.052,0.0037-0.1043,0.0058-0.1565,0.0058c-0.7758,0.0003-1.5517-0.0042-2.3274,0.0041
				c-0.1479,0.0016-0.2399-0.0515-0.3319-0.1572c-1.0751-1.2361-2.1537-2.4692-3.2313-3.7031
				c-0.0344-0.0394-0.0698-0.078-0.1023-0.1188c-0.0353-0.0443-0.0793-0.0642-0.1358-0.0623
				c-0.0522,0.0018-0.1046,0.0001-0.1569,0.0001c-0.5579,0-1.1158-0.0001-1.6737,0.0001c-0.061,0-0.122,0.0008-0.183,0.0015
				c-0.0507,0.0006-0.0819,0.0249-0.0837,0.0768c-0.0026,0.0783-0.0028,0.1568-0.0029,0.2351
				c-0.0002,1.1328-0.0001,2.2655-0.0001,3.3983c0,0.0697,0.0015,0.1395-0.0008,0.2091c-0.0034,0.1015-0.0158,0.1126-0.1277,0.1159
				c-0.0697,0.0021-0.1395,0.0006-0.2092,0.0006c-0.5579,0-1.1158,0.0007-1.6737-0.0007c-0.0863-0.0002-0.1743,0.0141-0.2581-0.0171
				c-0.0364-0.0666-0.0211-0.1377-0.0212-0.2062C1.92,93.4527,1.9201,89.5664,1.9202,85.6801c0-0.0523-0.0016-0.1048,0.0023-0.1568
				c0.0037-0.0479,0.0288-0.0807,0.0816-0.0825c0.0435-0.0015,0.0871-0.003,0.1306-0.0028
				c1.2464,0.0059,2.4928,0.0123,3.7392,0.0182c0.6101,0.0029,1.2203,0.0077,1.8305,0.0066
				c0.6781-0.0012,1.3368,0.1039,1.9603,0.3749c1.2758,0.5546,2.0568,1.5141,2.3153,2.8845
				c0.1365,0.7236,0.0875,1.4426-0.1335,2.143c-0.333,1.0553-1.0341,1.7739-2.0585,2.1826
				C9.5463,93.1442,9.2938,93.2062,9.0458,93.2749z M6.1381,91.4506c0.4874,0,0.9749,0.0008,1.4623-0.0004
				c0.2437-0.0006,0.4872-0.0069,0.7252-0.0695c0.7074-0.1859,1.1689-0.6196,1.3557-1.335
				c0.0671-0.2568,0.0778-0.5169,0.0449-0.7768c-0.0889-0.7025-0.4486-1.2115-1.1052-1.4956
				c-0.2829-0.1224-0.5819-0.1681-0.8902-0.1681c-1.1141,0.0001-2.2283-0.0035-3.3424-0.0055
				c-0.0348-0.0001-0.0696,0.0012-0.1043,0.0037c-0.0415,0.0029-0.0601,0.0296-0.0617,0.0682
				c-0.0023,0.0521-0.0031,0.1043-0.0031,0.1565c-0.0002,1.1311-0.0002,2.2623,0,3.3934c0,0.0522,0.0007,0.1044,0.0031,0.1565
				c0.0017,0.0385,0.0198,0.0665,0.0617,0.0681c0.0695,0.0027,0.1391,0.0042,0.2087,0.0042
				C5.0413,91.4507,5.5897,91.4506,6.1381,91.4506z"/>
			<path class="st8" d="M30.7012,90.0572c0.0023-0.0847,0.0065-0.1694,0.0066-0.2541c0.0004-1.3242,0.0003-2.6485,0.0003-3.9727
				c0-0.0523-0.0005-0.1046,0.0001-0.1568c0.0022-0.1983,0.0024-0.2002,0.2016-0.2005c0.5752-0.001,1.1504-0.0004,1.7257-0.0004
				c0.0261,0,0.0523-0.0005,0.0784,0.0004c0.1167,0.0041,0.1231,0.0091,0.1264,0.115c0.0022,0.0696,0.0008,0.1394,0.0008,0.2091
				c0,3.0318,0,6.0636,0,9.0954c0,0.7928,0,1.5856-0.0001,2.3784c0,0.0697-0.0008,0.1394-0.0018,0.209
				c-0.0007,0.0526-0.0308,0.0768-0.0805,0.0806c-0.0173,0.0014-0.0348,0.0019-0.0522,0.0019
				c-0.5752,0.0001-1.1504,0.0008-1.7257-0.0007c-0.1174-0.0003-0.1213-0.0036-0.1387-0.1362
				c-0.034-0.2589-0.0631-0.5184-0.0944-0.7777c-0.0052-0.0432-0.0057-0.088-0.0188-0.1287
				c-0.0063-0.0195-0.0392-0.0405-0.0631-0.0167c-0.0366,0.0364-0.0688,0.0775-0.1007,0.1183
				c-0.4185,0.5367-0.9714,0.8649-1.6249,1.0244c-0.5121,0.125-1.0319,0.1398-1.5569,0.0783
				c-0.4967-0.0582-0.9754-0.1737-1.4293-0.3834c-1.1487-0.5305-1.8672-1.4258-2.2029-2.6332
				c-0.1985-0.7139-0.2172-1.4428-0.1333-2.1765c0.0517-0.4525,0.1569-0.8912,0.3357-1.31
				c0.4782-1.1201,1.3149-1.8395,2.4745-2.1894c0.5121-0.1545,1.039-0.2316,1.5728-0.2047c0.7906,0.0399,1.518,0.2821,2.163,0.7502
				C30.3545,89.7148,30.5157,89.8843,30.7012,90.0572z M28.0844,95.7896c0.1827-0.0074,0.3636-0.021,0.5434-0.0637
				c1.3246-0.3151,2.1679-1.6618,1.8387-3.006c-0.3391-1.3843-1.6861-2.0617-2.7525-1.8751
				c-0.9454,0.1654-1.5833,0.679-1.8838,1.5915c-0.1613,0.4899-0.1685,0.9927-0.056,1.4955
				C26.0224,95.0408,26.9546,95.7891,28.0844,95.7896z"/>
			<path class="st8" d="M96.2869,89.9894c0-0.2823-0.0002-0.5072,0.0001-0.7322c0.0001-0.0609-0.0001-0.1219,0.0035-0.1827
				c0.0023-0.0396,0.0301-0.0609,0.0677-0.0644c0.0433-0.004,0.087-0.005,0.1304-0.005c0.4706-0.0003,0.9412-0.001,1.4118,0.0003
				c0.1793,0.0005,0.1794,0.0026,0.1818,0.1921c0.0004,0.0348,0.0001,0.0697,0.0001,0.1045c0,2.0994,0.0001,4.1988,0,6.2983
				c0,0.471-0.0231,0.9399-0.1232,1.4023c-0.104,0.4804-0.271,0.9348-0.5469,1.3452c-0.4099,0.61-0.9842,0.9996-1.6708,1.2328
				c-0.4893,0.1662-0.996,0.2475-1.5114,0.2654c-0.4791,0.0166-0.9582,0.0127-1.435-0.0512
				c-0.7282-0.0977-1.4343-0.2713-2.0948-0.6035c-0.2026-0.1019-0.3972-0.2169-0.5789-0.3527
				c-0.1497-0.1119-0.1509-0.1138-0.0598-0.2679c0.2216-0.3744,0.4451-0.7477,0.6677-1.1216
				c0.0265-0.0444,0.047-0.0935,0.1047-0.1223c0.0252,0.0164,0.0548,0.0336,0.0821,0.0537
				c0.6012,0.4436,1.2813,0.6867,2.0136,0.8068c0.4338,0.0712,0.868,0.0711,1.3027,0.0384c0.2605-0.0196,0.5152-0.08,0.76-0.1754
				c0.5381-0.2095,0.8912-0.5932,1.0681-1.1399c0.1358-0.4195,0.1466-0.8509,0.1261-1.2775
				c-0.0526-0.0354-0.075-0.0025-0.0985,0.0192c-0.5579,0.5153-1.2239,0.7767-1.9722,0.8641
				c-0.7969,0.0931-1.5671-0.001-2.2976-0.327c-1.261-0.5628-1.9864-1.539-2.1839-2.9066c-0.0952-0.6591-0.0366-1.3053,0.191-1.9292
				c0.3879-1.0635,1.1374-1.7739,2.1909-2.1656c0.724-0.2692,1.4726-0.3276,2.237-0.2236c0.2688,0.0366,0.5303,0.0983,0.7836,0.1915
				c0.4132,0.1522,0.7834,0.376,1.097,0.6884C96.1701,89.88,96.2077,89.9143,96.2869,89.9894z M93.8771,94.94
				c0.1903,0.0098,0.3979-0.0121,0.6025-0.0588c0.4148-0.0946,0.7895-0.2698,1.098-0.5687
				c0.4961-0.4806,0.6937-1.0803,0.6455-1.7541c-0.0619-0.865-0.4931-1.4994-1.2993-1.8329
				c-0.723-0.2991-1.4629-0.2856-2.1836,0.0277c-0.5645,0.2454-0.9485,0.6692-1.1378,1.2569
				c-0.1052,0.3266-0.1319,0.6628-0.0871,1.0061c0.1043,0.7996,0.5209,1.3695,1.2508,1.7054
				C93.1102,94.8801,93.477,94.9498,93.8771,94.94z"/>
			<path class="st8" d="M85.3485,89.942c0-0.2757-0.0013-0.5364,0.0006-0.7971c0.0009-0.1255,0.012-0.138,0.1307-0.1389
				c0.2963-0.0023,0.5926-0.001,0.8889-0.0011c0.2092,0,0.4183,0.0001,0.6275,0.0003c0.0435,0,0.0872-0.0005,0.1265,0.0296
				c0.0279,0.0825,0.0143,0.1703,0.0143,0.2566c0.0008,2.1343-0.0009,4.2687,0.0016,6.403c0.0007,0.5693-0.0547,1.1302-0.2175,1.677
				c-0.2749,0.9231-0.8239,1.6203-1.703,2.0395c-0.3313,0.158-0.6802,0.265-1.0406,0.3314
				c-0.7163,0.1319-1.4359,0.138-2.1597,0.0665c-0.6361-0.0629-1.253-0.1996-1.8478-0.4321
				c-0.3578-0.1399-0.6967-0.3166-1.0051-0.5479c-0.0413-0.031-0.08-0.0657-0.132-0.1086c0.2683-0.4713,0.5515-0.927,0.811-1.3699
				c0.0654-0.0308,0.091-0.002,0.1169,0.0179c0.4981,0.3855,1.0693,0.6098,1.6753,0.7546c0.5475,0.1309,1.1037,0.1505,1.662,0.1025
				c0.2602-0.0224,0.515-0.0821,0.7591-0.1789c0.5165-0.2048,0.8647-0.5686,1.0442-1.096c0.0764-0.2243,0.1232-0.4547,0.1389-0.6889
				c0.0145-0.2161,0.0031-0.4339,0.0031-0.6517c-0.0535-0.0264-0.0767,0.021-0.1055,0.0476
				c-0.544,0.5025-1.1937,0.7601-1.922,0.8542c-0.7321,0.0946-1.4481,0.0273-2.1321-0.2367
				c-1.344-0.5188-2.1526-1.4913-2.3817-2.924c-0.102-0.6377-0.0623-1.2697,0.1403-1.8837
				c0.3513-1.0647,1.0611-1.8062,2.0944-2.2257c0.9498-0.3856,1.9286-0.43,2.9179-0.1616c0.5133,0.1393,0.9633,0.3954,1.3435,0.7706
				C85.2333,89.8854,85.2592,89.9359,85.3485,89.942z M82.856,90.525c-0.1611,0.0077-0.3872,0.0144-0.6087,0.0705
				c-0.4127,0.1045-0.7823,0.2864-1.0867,0.5898c-0.3469,0.3457-0.5346,0.7673-0.5928,1.2489
				c-0.1077,0.891,0.2645,1.925,1.391,2.3425c0.5994,0.2221,1.2123,0.2292,1.8197,0.0379c0.5153-0.1623,0.9312-0.4688,1.2052-0.9434
				c0.2613-0.4525,0.3486-0.9408,0.2792-1.4591c-0.1105-0.825-0.5618-1.3861-1.3209-1.7063
				C83.6168,90.5686,83.2725,90.5215,82.856,90.525z"/>
			<path class="st9" d="M45.3578,96.4538c-0.0568-0.0018-0.0728,0.0303-0.0909,0.0585c-0.2366,0.3684-0.5616,0.6394-0.9427,0.8456
				c-0.5526,0.2989-1.141,0.4599-1.7732,0.4636c-0.5981,0.0035-1.1815-0.0788-1.7411-0.2889
				c-1.2066-0.4531-1.9846-1.3128-2.3701-2.5352c-0.1851-0.5871-0.2466-1.1918-0.2382-1.8042
				c0.0074-0.5423,0.0757-1.0775,0.2516-1.5926c0.4738-1.3876,1.4408-2.2462,2.8478-2.6186
				c0.4906-0.1299,0.9939-0.1811,1.5014-0.1564c0.5729,0.0279,1.1155,0.1713,1.6154,0.4599
				c0.3049,0.176,0.5715,0.3963,0.7896,0.6745c0.0348,0.0444,0.0522,0.112,0.1233,0.12c0.0522-0.0363,0.0417-0.0921,0.0446-0.1404
				c0.0112-0.1825,0.0171-0.3654,0.0277-0.548c0.0056-0.0955,0.0158-0.1908,0.0262-0.286c0.0055-0.0509,0.0389-0.0731,0.0886-0.0732
				c0.061-0.0002,0.122-0.0009,0.183-0.0009c0.4967-0.0001,0.9934-0.0001,1.4901,0c0.061,0,0.122,0.0002,0.183,0.001
				c0.0661,0.0009,0.0904,0.0415,0.0922,0.1008c0.0016,0.0522,0.0012,0.1045,0.0012,0.1568c0,2.6742,0,5.3484,0,8.0226
				c0,0.0435,0.0012,0.0872-0.0005,0.1306c-0.0041,0.1043-0.0157,0.119-0.1242,0.1193c-0.5926,0.0014-1.1851,0.0013-1.7777-0.0003
				c-0.0917-0.0002-0.1057-0.0161-0.1131-0.1047c-0.0209-0.2516-0.0401-0.5034-0.0602-0.7551
				C45.3849,96.617,45.3879,96.53,45.3578,96.4538z M45.3177,93.2788c0.0041-0.2479-0.0456-0.606-0.1447-0.8906
				c-0.2723-0.7817-0.7807-1.3319-1.5909-1.5591c-0.5215-0.1462-1.0507-0.1397-1.5714,0.0211
				c-0.7599,0.2346-1.2753,0.7304-1.5343,1.4804c-0.2109,0.6108-0.2161,1.2335-0.0275,1.8496
				c0.2411,0.7876,0.7628,1.3158,1.5455,1.5721c0.4456,0.146,0.904,0.1668,1.3675,0.0791c0.5905-0.1117,1.0727-0.3971,1.4322-0.8797
				C45.1497,94.4742,45.3038,93.9291,45.3177,93.2788z"/>
			<path class="st8" d="M20.204,97.5346c-0.0232-0.2653-0.0468-0.5334-0.0698-0.8016c-0.0067-0.0781-0.0105-0.1564-0.0185-0.2343
				c-0.0015-0.0142-0.0142-0.0328-0.0269-0.0391c-0.0264-0.013-0.0462,0.0029-0.0613,0.0256
				c-0.5076,0.7636-1.2623,1.1321-2.1316,1.2754c-1.0851,0.1788-2.1181-0.0096-3.0629-0.5815
				c-0.8434-0.5105-1.3676-1.2737-1.651-2.2075c-0.1345-0.4432-0.2068-0.898-0.2212-1.362
				c-0.0179-0.5769,0.0083-1.149,0.1598-1.7099c0.4191-1.5512,1.4174-2.5169,2.9654-2.9199
				c0.4484-0.1167,0.9083-0.1638,1.372-0.1528c0.5739,0.0137,1.1201,0.1447,1.6282,0.4166c0.3417,0.1829,0.6401,0.42,0.8774,0.7294
				c0.0264,0.0345,0.0512,0.0704,0.0804,0.1024c0.0084,0.0092,0.0324,0.0132,0.0443,0.008c0.0131-0.0057,0.028-0.0241,0.029-0.0378
				c0.0069-0.0955,0.0097-0.1913,0.0152-0.287c0.0118-0.2087,0.0224-0.4175,0.0377-0.626c0.0065-0.0893,0.0205-0.1005,0.1149-0.1007
				c0.6014-0.0011,1.2028-0.0013,1.8042,0.0002c0.1069,0.0003,0.1183,0.0153,0.1224,0.1227
				c0.002,0.0522,0.0007,0.1045,0.0007,0.1568c0,2.6573,0.0001,5.3145-0.0003,7.9718c0,0.0854-0.0044,0.1707-0.0066,0.253
				C21.9713,97.5738,20.4117,97.572,20.204,97.5346z M17.5977,95.8786c0.166,0.0022,0.3294-0.0142,0.4935-0.0439
				c0.7225-0.131,1.2772-0.5081,1.6232-1.1524c0.478-0.8902,0.4826-1.8036,0.0296-2.7053c-0.3009-0.599-0.7944-0.9874-1.442-1.1592
				c-0.4791-0.1271-0.9699-0.1292-1.448,0.002c-0.8234,0.2259-1.3836,0.7444-1.6458,1.5648
				c-0.1999,0.6254-0.1947,1.2559,0.0156,1.8748c0.2443,0.7188,0.7312,1.2129,1.4518,1.4682
				C16.9736,95.8332,17.2807,95.887,17.5977,95.8786z"/>
			<path class="st9" d="M51.2143,90.1472c0.0892-0.0765,0.1408-0.122,0.1939-0.166c0.1409-0.1166,0.2778-0.2385,0.4244-0.3475
				c0.7806-0.5804,1.6486-0.8384,2.6242-0.7187c0.9659,0.1185,1.7473,0.5527,2.3377,1.3267
				c0.2558,0.3353,0.4404,0.7085,0.5744,1.1071c0.1621,0.4821,0.2397,0.9795,0.2596,1.4863
				c0.0068,0.174,0.0032,0.3484,0.0032,0.5226c0.0002,1.298,0.0002,2.596,0,3.8939c0,0.0784-0.0006,0.1568-0.0032,0.2351
				c-0.0013,0.0402-0.0269,0.0616-0.0657,0.065c-0.0346,0.003-0.0695,0.0041-0.1043,0.0043
				c-0.5926,0.0025-1.1851,0.0049-1.7777,0.0067c-0.0434,0.0001-0.0875-0.0011-0.1298-0.0093
				c-0.0232-0.0045-0.0466-0.0216-0.047-0.0535c-0.0008-0.0783-0.0035-0.1566-0.0035-0.2349
				c-0.0002-1.3764-0.0016-2.7528,0.0009-4.1291c0.0006-0.3158-0.0272-0.6269-0.1246-0.9276
				c-0.2027-0.6262-0.5905-1.0906-1.2345-1.2796c-1.0266-0.3013-2.0401,0.0618-2.5678,1.0647
				c-0.1722,0.3273-0.267,0.6791-0.2779,1.0509c-0.0028,0.0958-0.0029,0.1916-0.0029,0.2874
				c-0.0002,1.3067-0.0001,2.6134-0.0001,3.9201c0,0.0949,0,0.1897,0,0.2729c-0.0622,0.0444-0.1156,0.0384-0.1674,0.0384
				c-0.5926,0.0003-1.1852,0.0002-1.7778,0.0002c-0.0261,0-0.0523-0.0001-0.0784-0.0012c-0.0589-0.0023-0.0993-0.0239-0.0978-0.0917
				c0.001-0.0435-0.0007-0.0871-0.0007-0.1307c0-2.7005,0-5.401,0-8.1015c0-0.0435,0.001-0.0871,0.0017-0.1306
				c0.0008-0.051,0.0278-0.0808,0.0774-0.0855c0.0432-0.0041,0.087-0.0031,0.1305-0.0032c0.4967-0.0002,0.9935-0.0001,1.4902-0.0001
				c0.0349,0,0.0698-0.0011,0.1046,0.0008c0.0903,0.0049,0.1063,0.0182,0.1166,0.1032c0.0357,0.2938,0.0704,0.5877,0.1054,0.8816
				C51.2017,90.0367,51.2053,90.069,51.2143,90.1472z"/>
			<path class="st8" d="M66.5489,94.8442c0.5892,0.5633,1.3126,0.8632,2.0901,1.0569c0.2631,0.0655,0.5306,0.1035,0.7999,0.1149
				c0.3347,0.0142,0.6587-0.0478,0.9626-0.1945c0.1503-0.0725,0.2841-0.169,0.3956-0.2946
				c0.1131-0.1274,0.1854-0.2749,0.2012-0.4445c0.0263-0.2818-0.0616-0.5143-0.3099-0.6713
				c-0.1797-0.1137-0.3801-0.1697-0.586-0.2088c-0.3086-0.0586-0.6216-0.0782-0.9339-0.105
				c-0.6184-0.0531-1.2219-0.1735-1.7971-0.4154c-0.2907-0.1223-0.5623-0.2767-0.8034-0.4808
				c-0.4922-0.4168-0.7494-0.95-0.7782-1.5932c-0.0126-0.2797,0.0059-0.5564,0.0842-0.8277
				c0.1402-0.486,0.4198-0.8747,0.8164-1.1831c0.4414-0.3433,0.9482-0.5445,1.4871-0.6692
				c0.5294-0.1225,1.0664-0.1542,1.6093-0.1259c0.4627,0.0241,0.9175,0.0817,1.3619,0.2185
				c0.5668,0.1745,1.0642,0.4688,1.5126,0.8516c0.0123,0.0106,0.0183,0.0285,0.0278,0.044c0.0058,0.0601-0.0439,0.0903-0.0755,0.128
				c-0.3191,0.3805-0.6399,0.7596-0.9602,1.139c-0.0225,0.0266-0.0421,0.0565-0.0682,0.0789
				c-0.0274,0.0235-0.0622,0.0311-0.0944,0.0056c-0.0341-0.0271-0.0662-0.0566-0.0998-0.0843
				c-0.4137-0.343-0.8905-0.53-1.4224-0.5979c-0.3751-0.0479-0.7468-0.0482-1.1196,0.0091
				c-0.2256,0.0347-0.443,0.0956-0.6358,0.2212c-0.2292,0.1493-0.3489,0.3591-0.3282,0.6388
				c0.0143,0.1929,0.1014,0.3486,0.2458,0.4737c0.1339,0.116,0.2916,0.1876,0.459,0.2402c0.3095,0.0972,0.6283,0.1344,0.9507,0.1548
				c0.6093,0.0386,1.2122,0.1164,1.7952,0.3097c0.2823,0.0936,0.5509,0.2158,0.7964,0.3837
				c0.4484,0.3067,0.751,0.7187,0.8891,1.2477c0.128,0.4899,0.1408,0.9811,0.01,1.4714c-0.1745,0.654-0.5699,1.1454-1.1335,1.5085
				c-0.4078,0.2627-0.8561,0.4221-1.3299,0.5138c-0.6468,0.1252-1.297,0.1273-1.9514,0.0668
				c-0.5861-0.0542-1.1495-0.1857-1.6834-0.4341c-0.5271-0.2453-0.9856-0.5874-1.3905-1.0027
				c-0.0117-0.012-0.0171-0.03-0.0253-0.0451C65.6096,96.1443,66.3896,95.0097,66.5489,94.8442z"/>
			<path class="st8" d="M59.933,92.9709c0-0.6009,0.0001-1.2017-0.0001-1.8026c0-0.0696-0.0003-0.1393-0.0025-0.2089
				c-0.0016-0.0514-0.0327-0.0786-0.0817-0.0808c-0.0696-0.0032-0.1393-0.0025-0.209-0.0026
				c-0.392-0.0003-0.784,0.0007-1.1761-0.0011c-0.1109-0.0005-0.1231-0.012-0.1235-0.1202
				c-0.0017-0.5225-0.0019-1.045-0.0001-1.5675c0.0004-0.126,0.0181-0.1405,0.1597-0.1411c0.4007-0.0017,0.8015-0.001,1.2022-0.0005
				c0.2457,0.0003,0.2312,0.007,0.2311-0.2226c-0.0002-0.566-0.0002-1.1321,0.0001-1.6981c0-0.0696,0.0005-0.1393,0.0039-0.2087
				c0.0025-0.051,0.0346-0.0749,0.0841-0.08c0.1212-0.0126,0.2421-0.0274,0.3634-0.0394c0.4157-0.0413,0.8316-0.0812,1.2473-0.1228
				c0.1126-0.0112,0.2246-0.0278,0.3372-0.0388c0.05-0.0049,0.0835,0.0214,0.0864,0.0731c0.004,0.0694,0.0045,0.1391,0.0046,0.2087
				c0.0003,0.6096,0.0001,1.2191,0.0002,1.8287c0,0.0696,0.0012,0.1393,0.0015,0.209c0.0003,0.0665,0.0385,0.0902,0.0993,0.0901
				c0.0784-0.0001,0.1568,0.0007,0.2352,0.0007c0.575,0.0001,1.1499-0.0001,1.7249,0.0002c0.0696,0,0.1393,0.0005,0.2087,0.0046
				c0.0376,0.0022,0.0641,0.0263,0.0702,0.0642c0.0055,0.0341,0.0072,0.0692,0.0072,0.1038
				c0.0004,0.5051,0.0012,1.0102-0.0003,1.5152c-0.0004,0.1319-0.0083,0.1378-0.1288,0.1418
				c-0.0609,0.002-0.1219,0.0006-0.1829,0.0006c-0.5924,0-1.1848-0.0001-1.7772,0.0002c-0.0696,0-0.1394-0.0004-0.2087,0.0052
				c-0.0368,0.003-0.0645,0.0308-0.0686,0.0677c-0.0057,0.0517-0.0043,0.1043-0.0043,0.1565
				c-0.0002,1.1408,0.0002,2.2815-0.0006,3.4223c-0.0001,0.1138,0.0147,0.2251,0.0317,0.3373
				c0.0857,0.5642,0.4978,0.9259,1.1541,0.8829c0.2971-0.0195,0.5833-0.0905,0.8544-0.2179c0.0639-0.03,0.0937-0.0159,0.1167,0.0528
				c0.0882,0.2637,0.1739,0.5282,0.2602,0.7925c0.0864,0.2644,0.1733,0.5286,0.2584,0.7934
				c0.0415,0.1292,0.0405,0.1311-0.0698,0.1755c-0.2993,0.1206-0.609,0.2034-0.927,0.2588
				c-0.4147,0.0723-0.8327,0.083-1.2498,0.0498c-1.1217-0.0894-2.0019-0.6795-2.3626-1.8519
				c-0.1078-0.3506-0.1653-0.7119-0.1665-1.0798c-0.0019-0.5834-0.0005-1.1669-0.0005-1.7503
				C59.9345,92.9709,59.9338,92.9709,59.933,92.9709z"/>
			<path class="st10" d="M34.6629,93.2905c0-1.3229,0-2.6459,0-3.9688c0-0.0696-0.0017-0.1393,0.001-0.2089
				c0.0038-0.0985,0.0218-0.118,0.1271-0.1183c0.6182-0.0014,1.2364-0.0014,1.8546,0c0.1151,0.0003,0.1304,0.0195,0.1345,0.139
				c0.0021,0.0609,0.0006,0.1218,0.0006,0.1828c0,2.6459,0.0006,5.2917-0.0007,7.9376c-0.0002,0.3545,0.0482,0.3062-0.2982,0.3079
				c-0.5137,0.0026-1.0274,0.0008-1.5411,0.0005c-0.0696,0-0.1392-0.0013-0.2088-0.0038c-0.0399-0.0014-0.0641-0.0246-0.0654-0.0644
				c-0.0026-0.0782-0.0034-0.1566-0.0034-0.2349C34.6629,95.9363,34.6629,94.6134,34.6629,93.2905z"/>
			<path class="st9" d="M75.7448,94.5196c0.7059,0.0037,1.2237,0.5371,1.2184,1.2571c-0.0051,0.6931-0.5392,1.2272-1.2288,1.227
				c-0.7371-0.0002-1.2399-0.5931-1.2303-1.2506C74.516,94.9261,75.1618,94.4988,75.7448,94.5196z"/>
			<path class="st3" d="M34.6963,87.5573c-0.0392-0.2587-0.0373-3.3518-0.0026-3.557c0.0416-0.016,0.0643,0.0164,0.0886,0.0378
				c0.6323,0.558,1.264,1.1166,1.8957,1.6751c0.013,0.0115,0.0269,0.0223,0.0388,0.0348c0.0368,0.0388,0.0327,0.0765-0.0068,0.1103
				c-0.2575,0.2205-0.515,0.441-0.773,0.6609c-0.3639,0.3101-0.7281,0.62-1.0928,0.9291
				C34.8049,87.4818,34.7611,87.5099,34.6963,87.5573z"/>
		</g>
	</g>
</g>
</svg>
